<?xml version="1.0" encoding="utf-8"?>
<!-- Generator: Adobe Illustrator 21.0.2, SVG Export Plug-In . SVG Version: 6.00 Build 0)  -->
<svg version="1.0" id="Camada_1" xmlns="http://www.w3.org/2000/svg" xmlns:xlink="http://www.w3.org/1999/xlink" x="0px" y="0px"
	 viewBox="0 0 247 63" style="enable-background:new 0 0 247 63;" xml:space="preserve">
<style type="text/css">
	.st0{fill:#F9DF19;}
	.st1{fill:#00B0C7;}
</style>
<path class="st0" d="M88.9,3.9C88.9,3.9,88.9,3.9,88.9,3.9c-0.2-0.2-0.2-0.5-0.1-0.7l0.7-2.1c0.4-1.2,0-1.4-1.1-1l-8.5,3
	c-2.1,0.7-2.6,1.1-0.7,2.2l8.4,4.6c1.3,0.7,1.5,0.2,1.2-1.2l-0.3-1.8c0-0.2,0-0.4,0.2-0.6c0.1-0.2,0.3-0.2,0.5-0.2l2.2,0.2
	c0.8,0.1,1.4,0.2,1.4-0.7c0-0.3,0-0.3,0.1-0.7c0-0.6-0.8-0.7-1.4-0.8c-1.4-0.1-0.8-0.1-2.2-0.2C89.2,4.1,89,4,88.9,3.9"/>
<path class="st0" d="M14.9,34.1c0.1,0,0.2,0,0.3,0c0.7,0.1,1.2,0.5,1.6,1.1l3.5,6.1c2,3.5,3.3,3.1,4.7-0.4l10.8-26.7
	c2.7-6.5,2.9-8.7-3.8-6.4l-29,10c-4.3,1.5-3.7,3,0.3,5.4l4.9,3c0.6,0.3,0.9,0.9,1,1.6c0.1,0.6-0.1,1.3-0.6,1.7l-5.2,4.9
	c-1.9,1.8-3.3,2.9-1.4,4.9c0.8,0.8,0.8,0.8,1.5,1.6c1.3,1.4,3.3-0.3,4.8-1.7c3.2-3,1.8-1.7,5.1-4.8C13.8,34.2,14.4,34,14.9,34.1"/>
<path class="st1" d="M97.7,34.4C97.7,34.4,97.7,34.3,97.7,34.4c0-0.3,0-0.5,0.2-0.7l1.6-1.6c0.9-0.9,0.7-1.3-0.5-1.5l-9.3-1.2
	c-2.3-0.3-3-0.2-1.7,1.8l5.6,8.4c0.8,1.2,1.2,0.9,1.7-0.5l0.5-1.8c0.1-0.2,0.2-0.4,0.4-0.5c0.2-0.1,0.4-0.1,0.6,0l2,1.2
	c0.7,0.5,1.2,0.8,1.7,0c0.2-0.3,0.2-0.3,0.4-0.6c0.3-0.5-0.4-1-0.9-1.4c-1.2-0.8-0.7-0.4-1.9-1.2C97.9,34.7,97.8,34.6,97.7,34.4"/>
<path class="st1" d="M190.8,55.5C190.9,55.5,190.9,55.4,190.8,55.5c0.3-0.3,0.6-0.4,0.9-0.4l3.2,0.3c1.8,0.2,2.1-0.4,1.1-1.9
	l-7.3-11.3c-1.8-2.8-2.5-3.5-3.5-0.2l-3.9,13.8c-0.6,2,0.2,2.2,2.1,1.3l2.5-1.1c0.3-0.1,0.6-0.1,0.9,0c0.3,0.1,0.5,0.4,0.5,0.7
	l0.5,3.3c0.2,1.2,0.2,2,1.5,1.9c0.5-0.1,0.5-0.1,1-0.2c0.9-0.1,0.8-1.4,0.6-2.3c-0.3-2-0.2-1.2-0.5-3.2
	C190.6,56,190.7,55.7,190.8,55.5"/>
<path class="st1" d="M147.4,28.1c0-0.6-0.1-1.2-0.3-1.8c-0.2-0.6-0.4-1.2-0.8-1.8c-0.3-0.6-0.7-1-1.2-1.5c-0.4-0.3-0.8-0.5-1.3-0.7
	c-0.5-0.1-1-0.2-1.5-0.2c-0.6,0-1.2,0.1-1.7,0.3c-0.5,0.2-1.1,0.4-1.6,0.6c-0.5,0.3-1,0.6-1.5,0.9c-0.4,0.3-0.9,0.7-1.3,1.1
	c-0.4,0.4-0.7,0.8-1,1.2c-0.3,0.4-0.5,0.8-0.6,1.3c-0.3,0.6-0.5,1.3-0.6,1.9c-0.2,0.7-0.3,1.5-0.2,2.2l0,0.3
	c-0.2-0.2-0.4-0.4-0.7-0.5c-0.3-0.2-0.7-0.4-1.1-0.6c-0.4-0.2-0.7-0.3-1.1-0.4c-0.5-0.2-1-0.2-1.5-0.2c-0.5,0-1.1,0-1.6,0
	c-0.5,0.1-1,0.2-1.5,0.4c-0.4,0.1-0.7,0.3-1.1,0.4c-0.3,0.1-0.6,0.3-0.9,0.5c-0.4,0.2-0.7,0.4-1.1,0.7c-0.3,0.2-0.6,0.5-0.9,0.7
	c-0.3,0.3-0.5,0.6-0.8,1c-0.2,0.4-0.4,0.8-0.5,1.3c-0.1,0.4-0.1,0.9-0.1,1.3c0,0.5,0,1,0.1,1.5l0,0c0.1,0.5,0.3,1,0.5,1.5
	c0.2,0.5,0.4,0.9,0.7,1.4c0.3,0.5,0.6,0.9,1,1.3c0.4,0.4,0.8,0.8,1.2,1.2c0.4,0.4,0.9,0.7,1.4,1c0.5,0.3,0.9,0.6,1.3,0.8
	c0.4,0.2,0.7,0.4,0.9,0.5c0.3,0.2,0.7,0.4,1,0.5c0.4,0.2,0.8,0.4,1.3,0.7c0.4,0.2,0.8,0.4,1.2,0.6c0.4,0.3,0.9,0.5,1.3,0.8
	s0.9,0.5,1.4,0.7c0.4,0.2,0.8,0.5,1.2,0.8c0.5,0.3,0.9,0.5,1.1,0.7c0.2,0.1,0.4,0.2,0.6,0.4c0.1,0.1,0.2,0.1,0.3,0.2
	c0.2,0.3,0.4,0.6,0.8,0.8c0.4,0.2,0.9,0.2,1.3,0c0.5-0.2,0.8-0.5,1.1-0.9l0.3-0.6c0.2-0.4,0.4-0.8,0.7-1.4c0.3-0.5,0.5-1.1,0.8-1.6
	c0.3-0.5,0.5-1,0.7-1.6s0.5-1,0.7-1.6c0.2-0.6,0.5-1.1,0.7-1.8c0.2-0.5,0.4-0.9,0.5-1.2c0.1-0.4,0.3-0.8,0.5-1.5
	c0.2-0.6,0.4-1.2,0.5-1.8c0.1-0.6,0.3-1.1,0.4-1.7c0.2-0.6,0.3-1.2,0.4-1.9c0.1-0.6,0.2-1.2,0.3-1.9c0.1-0.7,0.2-1.5,0.3-2.2
	C147.6,29.7,147.6,28.9,147.4,28.1z M144,30.4c0,0.6-0.1,1.3-0.2,1.9c-0.1,0.6-0.2,1.3-0.3,1.9c-0.1,0.5-0.2,1.1-0.3,1.5
	c-0.1,0.5-0.3,1.1-0.4,1.6c-0.1,0.5-0.3,1.1-0.5,1.6c-0.2,0.5-0.3,0.9-0.4,1.1c-0.1,0.3-0.3,0.8-0.5,1.4c-0.2,0.5-0.4,1-0.6,1.5
	s-0.4,1-0.7,1.6c-0.2,0.5-0.5,1-0.7,1.5c-0.2,0.5-0.5,0.9-0.7,1.4c0,0,0,0-0.1,0c-0.2-0.2-0.6-0.4-1.1-0.7c-0.5-0.4-1-0.7-1.6-0.9
	c-0.5-0.2-0.9-0.4-1.3-0.7c-0.4-0.2-0.8-0.4-1.2-0.7c-0.4-0.3-0.9-0.5-1.4-0.7c-0.5-0.2-0.9-0.5-1.4-0.7c-0.4-0.2-0.7-0.3-0.9-0.4
	c-0.2-0.1-0.4-0.2-0.8-0.4c-0.4-0.2-0.8-0.5-1.3-0.8c-0.4-0.2-0.7-0.5-1.1-0.7c-0.3-0.2-0.5-0.5-0.7-0.8c-0.2-0.3-0.4-0.5-0.6-0.8
	l0,0c-0.2-0.3-0.3-0.7-0.5-1c-0.1-0.3-0.2-0.6-0.3-0.9c-0.1-0.2-0.1-0.4-0.1-0.6c0-0.2,0-0.3,0.1-0.5c0-0.1,0-0.1,0-0.2
	c0.1-0.1,0.1-0.2,0.2-0.2c0.1-0.1,0.2-0.2,0.4-0.3c0.2-0.1,0.4-0.2,0.7-0.4c0.3-0.1,0.5-0.3,0.8-0.4c0.2-0.1,0.4-0.1,0.7-0.2
	c0.3-0.1,0.6-0.2,0.9-0.2c0.3,0,0.6,0,0.9,0c0.3,0,0.5,0,0.8,0.1c0.3,0.1,0.6,0.2,0.9,0.3c0.2,0.1,0.4,0.2,0.6,0.3
	c0.2,0.1,0.3,0.3,0.5,0.4c0.2,0.2,0.4,0.4,0.6,0.6c0.3,0.3,0.5,0.5,0.8,0.8c0.3,0.3,0.5,0.5,0.7,0.8c0.1,0,0.1,0.1,0.2,0.1
	c0.1,0,0.2,0.1,0.5,0.2c0.2,0.1,0.5,0.1,0.7,0.2c0.2,0,0.5,0.1,0.7,0c0.2,0,0.5-0.1,0.7-0.2c0.2-0.1,0.4-0.3,0.5-0.5
	c0.1-0.3,0.2-0.7,0.2-1c0-0.2,0-0.5,0-0.8c0-0.2,0-0.6,0-1c0-0.4,0-0.9,0-1.3c0-0.4,0-0.9,0-1.4c0-0.5,0.1-1,0.2-1.4
	c0.1-0.4,0.2-0.8,0.3-1.2c0.1-0.3,0.2-0.5,0.4-0.7c0.1-0.2,0.3-0.5,0.5-0.6c0.2-0.2,0.5-0.5,0.8-0.7c0.3-0.2,0.6-0.4,0.9-0.6
	c0.3-0.2,0.7-0.3,1-0.4c0.2-0.1,0.4-0.1,0.7-0.1c0.2,0,0.4,0,0.5,0.1c0.1,0,0.1,0,0.2,0.1c0.2,0.2,0.3,0.3,0.4,0.5
	c0.1,0.2,0.2,0.5,0.3,0.7c0.1,0.5,0.2,0.9,0.2,1.4C144,29.2,144,29.8,144,30.4z"/>
<path class="st1" d="M125,60.8C125,60.8,125.1,60.8,125,60.8c0.7,0.7,1.5,1,2.3,1c0.9,0,1.7-0.4,2.3-1l0.3-0.3
	c0.6-0.7,0.9-1.6,1-2.5c0.2-1.1-0.2-2.2-1-2.9c-0.5-0.4-1.1-0.6-1.7-0.7c-0.6-0.1-1.3,0-1.9,0.2c-1.2,0.2-2.2,1.1-2.5,2.3l-0.1,0.2
	c-0.2,0.7-0.2,1.4,0,2.1C124,59.8,124.4,60.4,125,60.8"/>
<path class="st1" d="M208,6.3c-0.2-0.4-0.4-0.7-0.7-1c-0.3-0.3-0.7-0.6-1.1-0.8c-0.4-0.2-0.8-0.4-1.2-0.5c-0.4-0.1-0.9-0.2-1.4-0.3
	c-0.4-0.1-0.9-0.1-1.3-0.1c-0.4,0-0.8,0.1-1.3,0.1c-0.4,0.1-0.8,0.2-1.1,0.4c-0.5,0.2-1,0.5-1.4,0.8c-0.5,0.3-1,0.7-1.4,1.1
	l-0.2,0.1c0-0.2-0.1-0.5-0.1-0.7c-0.1-0.3-0.2-0.6-0.3-1c-0.1-0.3-0.3-0.6-0.4-0.9c-0.2-0.4-0.5-0.7-0.8-1c-0.3-0.3-0.6-0.6-0.9-0.9
	c-0.3-0.2-0.7-0.5-1-0.6c-0.3-0.2-0.6-0.3-0.8-0.4c-0.3-0.1-0.5-0.2-0.8-0.3c-0.3-0.1-0.6-0.2-1-0.2c-0.6-0.1-1.3-0.1-1.9,0
	c-0.4,0.1-0.7,0.2-1,0.4c-0.3,0.2-0.6,0.4-0.8,0.7c-0.3,0.3-0.5,0.6-0.8,0.9l0,0c-0.2,0.3-0.4,0.7-0.6,1.1c-0.2,0.4-0.3,0.8-0.4,1.2
	c-0.1,0.4-0.2,0.9-0.2,1.3c0,0.5,0,0.9,0,1.4c0,0.5,0.1,0.9,0.2,1.4c0.1,0.5,0.2,0.9,0.3,1.2c0.1,0.3,0.2,0.6,0.2,0.8
	c0.1,0.3,0.2,0.6,0.3,0.9c0.1,0.3,0.2,0.7,0.4,1.1c0.1,0.3,0.2,0.7,0.3,1c0.1,0.4,0.2,0.8,0.3,1.2c0.1,0.4,0.3,0.8,0.4,1.2
	c0.1,0.4,0.2,0.8,0.3,1.1c0.1,0.5,0.2,0.8,0.2,1s0.1,0.4,0.1,0.6c0,0.1,0,0.2,0.1,0.3c-0.1,0.3-0.1,0.6,0,0.9
	c0.1,0.4,0.4,0.6,0.7,0.8c0.4,0.2,0.8,0.2,1.1,0.1l0.5-0.2c0.3-0.1,0.7-0.2,1.2-0.4c0.5-0.1,0.9-0.3,1.4-0.5
	c0.4-0.2,0.9-0.3,1.3-0.5s0.9-0.3,1.3-0.5c0.5-0.2,0.9-0.4,1.4-0.6c0.4-0.2,0.7-0.3,1-0.4c0.3-0.1,0.6-0.3,1.1-0.5
	c0.4-0.2,0.9-0.5,1.3-0.7c0.4-0.2,0.8-0.5,1.2-0.7c0.4-0.3,0.9-0.5,1.3-0.9c0.4-0.3,0.8-0.6,1.2-0.9c0.5-0.3,0.9-0.7,1.4-1.1
	c0.5-0.4,0.9-0.9,1.3-1.4c0.3-0.4,0.6-0.8,0.9-1.2c0.3-0.5,0.5-1,0.6-1.5c0.1-0.5,0.2-1,0.2-1.5C208.3,7,208.2,6.6,208,6.3z
	 M205.3,8.4c0,0.2-0.1,0.4-0.2,0.6c-0.2,0.3-0.4,0.6-0.7,0.9c-0.3,0.4-0.6,0.7-1,1c-0.4,0.4-0.8,0.7-1.2,1c-0.4,0.3-0.8,0.6-1.2,0.9
	c-0.4,0.2-0.7,0.5-1.1,0.7c-0.4,0.2-0.8,0.5-1.2,0.7c-0.4,0.2-0.8,0.4-1.2,0.6c-0.4,0.2-0.7,0.3-0.8,0.4c-0.2,0.1-0.6,0.3-1.1,0.5
	c-0.4,0.2-0.8,0.3-1.2,0.5s-0.8,0.3-1.3,0.5c-0.4,0.2-0.8,0.3-1.2,0.5c-0.4,0.1-0.8,0.3-1.2,0.4c0,0,0,0,0,0c0-0.2-0.1-0.5-0.2-1
	c-0.1-0.5-0.2-1-0.4-1.4c-0.1-0.4-0.3-0.8-0.4-1.1c-0.1-0.3-0.2-0.7-0.3-1.1c-0.1-0.4-0.2-0.8-0.4-1.2c-0.1-0.4-0.3-0.8-0.4-1.2
	c-0.1-0.4-0.2-0.6-0.3-0.8c-0.1-0.2-0.1-0.4-0.2-0.7c-0.1-0.4-0.2-0.8-0.3-1.2c-0.1-0.3-0.2-0.7-0.2-1c0-0.3,0-0.6,0-0.9
	c0-0.3,0.1-0.5,0.1-0.8l0,0c0.1-0.3,0.2-0.6,0.3-0.9c0.1-0.2,0.2-0.4,0.3-0.6c0.1-0.1,0.2-0.3,0.3-0.4c0.1-0.1,0.2-0.2,0.3-0.2
	c0,0,0.1-0.1,0.1-0.1c0.1,0,0.2,0,0.2,0c0.1,0,0.3,0,0.4,0c0.2,0,0.4,0.1,0.6,0.2c0.2,0.1,0.5,0.1,0.7,0.2c0.1,0.1,0.3,0.1,0.5,0.3
	c0.2,0.1,0.4,0.2,0.7,0.4c0.2,0.2,0.4,0.3,0.5,0.5c0.1,0.2,0.3,0.3,0.4,0.5c0.1,0.2,0.2,0.5,0.3,0.7c0.1,0.2,0.1,0.3,0.2,0.5
	c0,0.2,0,0.3,0,0.5c0,0.2,0,0.5,0,0.7c0,0.3,0,0.6,0,0.9c0,0.3,0,0.6,0,0.9c0,0.1,0,0.1,0.1,0.2c0,0.1,0.1,0.2,0.2,0.4
	c0.1,0.2,0.2,0.3,0.3,0.5c0.1,0.2,0.2,0.3,0.4,0.5c0.1,0.1,0.3,0.2,0.5,0.3c0.2,0,0.4,0,0.6,0c0.3-0.1,0.5-0.3,0.7-0.5
	c0.1-0.1,0.3-0.3,0.4-0.5c0.2-0.1,0.3-0.3,0.6-0.5c0.2-0.2,0.5-0.5,0.7-0.8c0.2-0.2,0.5-0.5,0.8-0.8c0.3-0.3,0.6-0.5,0.9-0.7
	c0.3-0.2,0.6-0.4,0.9-0.5c0.2-0.1,0.4-0.2,0.6-0.2c0.2-0.1,0.4-0.1,0.7-0.1c0.3,0,0.5,0,0.8,0c0.3,0,0.6,0.1,0.9,0.2
	c0.3,0.1,0.5,0.2,0.8,0.3c0.2,0.1,0.3,0.2,0.4,0.3c0.1,0.1,0.2,0.2,0.3,0.3c0,0.1,0.1,0.1,0.1,0.2C205.4,8,205.4,8.2,205.3,8.4z"/>
<path class="st1" d="M175.4,17.4C175.4,17.4,175.4,17.4,175.4,17.4c0,0.8,0.3,1.4,0.8,1.9c0.5,0.5,1.2,0.8,1.9,0.7l0.4,0
	c0.7-0.1,1.4-0.4,2-0.9c0.7-0.5,1.1-1.4,1.1-2.2c-0.1-1-0.8-1.9-1.8-2.3c-0.8-0.6-1.9-0.6-2.8-0.1l-0.1,0.1
	c-0.5,0.3-0.9,0.7-1.2,1.2C175.3,16.2,175.3,16.8,175.4,17.4"/>
<path class="st0" d="M246.7,45.1L246.7,45.1c-0.2-0.7-0.5-1.5-0.9-2.1c-0.3-0.7-0.7-1.3-1.1-1.9c-0.4-0.5-0.8-1-1.2-1.4
	c-0.5-0.5-1.1-1-1.7-1.5c-0.7-0.5-1.3-0.9-1.8-1.1c-0.5-0.2-1-0.5-1.6-0.7c-0.5-0.2-1.2-0.4-1.9-0.6c-0.7-0.2-1.5-0.3-2.2-0.3
	c-0.7,0-1.3,0-1.8,0c-0.5,0.1-1.1,0.1-1.7,0.3c-0.6,0.2-1.3,0.4-2.2,0.7c-0.7,0.3-1.4,0.7-2.1,1.1c-0.5,0.4-1,0.7-1.5,1.1
	c-0.4,0.4-0.8,0.7-1.3,1.1c-0.5,0.4-0.9,0.9-1.3,1.4c-0.4,0.6-0.8,1.1-1.1,1.8c-0.4,0.7-0.7,1.3-0.9,2.1c-0.2,0.6-0.3,1.2-0.4,1.8
	c-0.2,0.8-0.3,1.5-0.3,2.3c-0.1,0.7-0.1,1.5,0,2.2c0,0.6,0.1,1.2,0.2,1.8c0.1,0.5,0.3,1.1,0.4,1.6c0.2,0.6,0.5,1.2,0.8,1.7
	c0.3,0.5,0.5,1.1,0.9,1.6c0.3,0.4,0.5,0.8,0.8,1.1c0.3,0.5,0.7,0.9,1.2,1.2c0.4,0.4,0.8,0.7,1.3,1c0.3,0.2,0.7,0.5,1,0.6
	c0.5,0.2,1,0.5,1.5,0.6c0.5,0.2,1.1,0.3,1.6,0.4c0.5,0.1,0.9,0.1,1.4,0.1c0.6,0,1.2,0,1.8-0.1c0.6-0.1,1.2-0.2,1.8-0.3
	c0.4-0.1,0.9-0.3,1.4-0.5c0.5-0.2,1-0.4,1.4-0.6c0.5-0.2,0.8-0.4,1-0.6l0.3-0.2c0.4-0.2,0.7-0.6,0.9-1c0.2-0.3,0.1-0.8-0.1-1.1
	c-0.3-0.3-0.7-0.5-1.1-0.5c-0.5,0-1,0.1-1.4,0.4l-0.3,0.2c-0.2,0.1-0.4,0.2-0.8,0.4c-0.3,0.2-0.6,0.3-0.8,0.4
	c-0.3,0.1-0.5,0.2-0.8,0.3c-0.4,0.1-0.7,0.2-1.1,0.2c-0.4,0.1-0.7,0.1-1.1,0.1c-0.3,0-0.6,0-1-0.1c-0.3-0.1-0.7-0.1-1-0.2
	c-0.3-0.1-0.7-0.3-1-0.5c-0.3-0.2-0.6-0.3-0.9-0.5c-0.4-0.2-0.7-0.5-1-0.8c-0.3-0.3-0.7-0.6-1-1c-0.2-0.3-0.5-0.6-0.7-1
	c-0.3-0.4-0.5-0.9-0.7-1.4c-0.3-0.6-0.5-1.1-0.7-1.5c-0.1-0.4-0.3-0.9-0.4-1.3c-0.1-0.5-0.2-1-0.2-1.5c0-0.6-0.1-1.3,0-2
	c0-0.6,0.1-1.3,0.2-1.9c0.1-0.5,0.3-1,0.4-1.5c0.2-0.5,0.4-1,0.7-1.5c0.3-0.5,0.5-0.9,0.9-1.4c0.2-0.3,0.4-0.5,0.7-0.7
	c0.4-0.3,0.7-0.6,1.1-0.9c0.3-0.3,0.7-0.5,1.1-0.8c0.4-0.3,0.8-0.5,1.3-0.7c0.4-0.2,0.8-0.3,1.3-0.4c0.3-0.1,0.7-0.1,1-0.2
	c0.3,0,0.8,0,1.2,0c0.5,0,1,0.1,1.5,0.2c0.6,0.2,1.1,0.3,1.6,0.5c0.4,0.1,0.8,0.3,1.1,0.5c0.5,0.3,1,0.6,1.5,1
	c0.5,0.3,1,0.7,1.5,1.2c0.3,0.3,0.7,0.7,0.9,1.1c0.4,0.5,0.7,1.1,1,1.7c0.3,0.5,0.5,1.1,0.7,1.7c0.1,0.4,0.2,0.8,0.2,1.2
	c0,0.3,0,0.6-0.1,0.8c-0.1,0.2-0.3,0.4-0.4,0.6c-0.2,0.2-0.5,0.4-0.8,0.6c-0.1,0.1-0.2,0.1-0.4,0.1c-0.1,0-0.2,0-0.3,0
	c-0.1,0-0.2-0.1-0.3-0.1c-0.2-0.1-0.4-0.3-0.6-0.5c-0.2-0.2-0.3-0.3-0.4-0.5c-0.1-0.2-0.3-0.4-0.5-0.6c-0.3-0.4-0.6-0.9-0.9-1.2
	c-0.1-0.4-0.2-0.8-0.4-1.1c-0.2-0.4-0.4-0.8-0.6-1.2c-0.2-0.3-0.3-0.5-0.4-0.8c0.1-0.1,0.3-0.2,0.4-0.4c0.3-0.3,0.3-0.7,0.2-1.1
	c-0.1-0.4-0.4-0.7-0.8-0.8l-0.4-0.1c-0.3-0.1-0.6-0.2-1-0.2c-0.4-0.1-0.9-0.1-1.3-0.1c-1.4,0.1-2.7,0.5-3.9,1.2
	c-0.7,0.4-1.3,0.9-1.9,1.5c-0.7,0.8-1.3,1.7-1.8,2.6c-0.5,1-0.9,2-1.1,3.1c-0.1,0.8-0.1,1.7,0,2.5c0.1,0.7,0.3,1.4,0.6,2
	c0.3,0.5,0.6,1,1,1.5c0.4,0.5,0.8,0.9,1.3,1.2c0.5,0.4,1,0.7,1.5,0.9c0.6,0.2,1.1,0.4,1.7,0.4c0.7,0.1,1.5,0,2.2-0.2
	c0.7-0.2,1.4-0.4,2-0.8c0.6-0.3,1.1-0.7,1.6-1.2c0.5-0.5,1-1,1.3-1.7c0.2-0.5,0.4-1,0.5-1.5c0.1,0,0.1,0,0.2,0
	c0.6,0.1,1.2,0.1,1.8,0c0.8-0.1,1.5-0.4,2.2-0.8c0.7-0.4,1.3-0.9,1.9-1.5c0.6-0.6,1.1-1.3,1.3-2c0.1-0.5,0.2-1.1,0.2-1.6
	C247,46.2,246.9,45.6,246.7,45.1z M235.7,52.6c0,0.4-0.1,0.7-0.3,1.1c-0.1,0.2-0.2,0.3-0.3,0.5c-0.2,0.2-0.4,0.3-0.6,0.5
	c-0.2,0.1-0.4,0.2-0.7,0.2c-0.2,0.1-0.5,0.1-0.7,0.1c-0.3,0-0.5-0.1-0.8-0.2c-0.3-0.1-0.6-0.3-0.9-0.5c-0.3-0.2-0.6-0.5-0.9-0.8
	c-0.3-0.4-0.5-0.7-0.7-1.1c-0.2-0.5-0.4-1-0.4-1.5c-0.1-0.6-0.1-1.2,0-1.8c0.1-0.7,0.4-1.5,0.8-2.1c0.3-0.6,0.7-1.2,1.1-1.7
	c0.2-0.3,0.5-0.5,0.8-0.7c0.3-0.2,0.6-0.3,0.9-0.4c0.1,0,0.1-0.1,0.2-0.1c0,0.3,0,0.6,0.1,0.8c0.1,0.4,0.3,0.7,0.4,1
	c0.2,0.3,0.4,0.7,0.6,1.1c0.2,0.4,0.5,0.9,0.8,1.4h0c0,0.2,0.1,0.4,0.2,0.6c0.1,0.5,0.3,1.1,0.3,1.7c0,0.1,0,0.2,0,0.4
	C235.8,51.5,235.8,52,235.7,52.6z"/>
<path class="st0" d="M71,22.5L71,22.5c-0.1-0.5-0.3-0.9-0.5-1.3c-0.2-0.4-0.4-0.8-0.7-1.2c-0.2-0.3-0.5-0.6-0.7-0.9
	c-0.3-0.3-0.7-0.6-1.1-0.9c-0.4-0.3-0.7-0.5-1.1-0.7c-0.3-0.2-0.6-0.3-1-0.4c-0.3-0.1-0.7-0.2-1.2-0.4c-0.4-0.1-0.9-0.2-1.4-0.2
	c-0.4,0-0.8,0-1.1,0c-0.4,0-0.7,0.1-1.1,0.2c-0.5,0.1-0.9,0.3-1.3,0.5c-0.4,0.2-0.9,0.4-1.3,0.7c-0.3,0.2-0.6,0.4-0.9,0.7
	c-0.3,0.2-0.5,0.5-0.8,0.7c-0.3,0.3-0.6,0.6-0.8,0.9c-0.3,0.4-0.5,0.7-0.7,1.1c-0.2,0.4-0.4,0.9-0.5,1.3c-0.1,0.4-0.2,0.7-0.3,1.1
	c-0.1,0.5-0.2,1-0.2,1.5c0,0.5,0,0.9,0,1.4c0,0.4,0.1,0.7,0.1,1.1c0.1,0.3,0.2,0.7,0.3,1c0.3,0.7,0.6,1.4,1,2.1
	c0.2,0.2,0.3,0.5,0.5,0.7c0.2,0.3,0.5,0.5,0.7,0.8c0.3,0.2,0.5,0.4,0.8,0.6c0.2,0.1,0.4,0.3,0.6,0.4c0.3,0.2,0.6,0.3,0.9,0.4
	c0.3,0.1,0.7,0.2,1,0.3c0.3,0,0.6,0.1,0.9,0.1c0.4,0,0.8,0,1.1-0.1c0.4,0,0.7-0.1,1.1-0.2c0.3-0.1,0.6-0.2,0.8-0.3
	c0.3-0.1,0.6-0.3,0.9-0.4l0.6-0.4l0.2-0.1c0.3-0.2,0.5-0.4,0.6-0.7c0.1-0.2,0.1-0.5-0.1-0.7c-0.2-0.2-0.4-0.3-0.7-0.3
	c-0.3,0-0.6,0.1-0.9,0.2l-0.2,0.1c-0.1,0.1-0.3,0.1-0.5,0.3c-0.2,0.1-0.3,0.2-0.5,0.3c-0.2,0.1-0.3,0.1-0.5,0.2
	c-0.2,0.1-0.4,0.1-0.7,0.1c-0.2,0-0.4,0.1-0.7,0c-0.2,0-0.4,0-0.6-0.1c-0.2,0-0.4-0.1-0.6-0.2c-0.2-0.1-0.4-0.2-0.6-0.3
	c-0.2-0.1-0.4-0.2-0.5-0.3c-0.2-0.1-0.4-0.3-0.6-0.5c-0.2-0.2-0.4-0.4-0.6-0.6c-0.1-0.2-0.3-0.4-0.5-0.6c-0.1-0.2-0.3-0.5-0.5-0.9
	c-0.2-0.4-0.3-0.7-0.4-1c-0.1-0.3-0.2-0.6-0.2-0.8c-0.1-0.3-0.1-0.6-0.1-0.9c0-0.4,0-0.8,0-1.2c0-0.4,0-0.8,0.1-1.2
	c0.1-0.4,0.2-0.7,0.2-1c0.1-0.3,0.3-0.6,0.4-0.9c0.2-0.3,0.3-0.6,0.5-0.9c0.1-0.2,0.3-0.3,0.4-0.5c0.2-0.2,0.5-0.4,0.7-0.6
	c0.2-0.2,0.4-0.3,0.7-0.5c0.2-0.2,0.5-0.3,0.8-0.4c0.3-0.1,0.5-0.2,0.8-0.3c0.2,0,0.4-0.1,0.6-0.1c0.2,0,0.5,0,0.8,0
	c0.3,0,0.6,0.1,0.9,0.2c0.4,0.1,0.7,0.2,1,0.3c0.2,0.1,0.5,0.2,0.7,0.3c0.3,0.2,0.6,0.4,0.9,0.6c0.3,0.2,0.6,0.5,0.9,0.8
	c0.2,0.2,0.4,0.5,0.6,0.7c0.2,0.3,0.4,0.7,0.6,1.1c0.2,0.3,0.3,0.7,0.5,1.1c0.1,0.2,0.1,0.5,0.1,0.8c0,0.2,0,0.4,0,0.5
	c-0.1,0.1-0.2,0.3-0.3,0.4c-0.2,0.1-0.3,0.3-0.5,0.4c-0.1,0-0.2,0.1-0.2,0.1c-0.1,0-0.1,0-0.2,0c-0.1,0-0.1-0.1-0.2-0.1
	c-0.1-0.1-0.3-0.2-0.4-0.3c-0.1-0.1-0.2-0.2-0.3-0.3c-0.1-0.1-0.2-0.2-0.3-0.4c-0.2-0.3-0.4-0.5-0.6-0.8c-0.1-0.2-0.1-0.5-0.2-0.7
	c-0.1-0.3-0.2-0.5-0.4-0.8c-0.1-0.2-0.2-0.4-0.3-0.5c0.1-0.1,0.2-0.1,0.2-0.2c0.2-0.2,0.2-0.5,0.1-0.7c-0.1-0.2-0.3-0.4-0.5-0.5
	l-0.2,0c-0.2,0-0.4-0.1-0.6-0.1c-0.3,0-0.5,0-0.8,0c-0.4,0-0.8,0.1-1.1,0.2c-0.5,0.1-0.9,0.3-1.3,0.6c-0.4,0.3-0.8,0.6-1.2,1
	c-0.4,0.5-0.8,1.1-1.1,1.6c-0.3,0.6-0.6,1.3-0.7,2c-0.1,0.5-0.1,1.1,0,1.6c0.1,0.4,0.2,0.9,0.4,1.3c0.2,0.3,0.4,0.7,0.6,1
	c0.2,0.3,0.5,0.6,0.8,0.8c0.3,0.2,0.6,0.4,0.9,0.6c0.3,0.1,0.7,0.2,1.1,0.2c0.5,0,0.9,0,1.3-0.1c0.4-0.1,0.9-0.3,1.3-0.5
	c0.4-0.2,0.7-0.5,1-0.7c0.3-0.3,0.6-0.7,0.8-1.1c0.1-0.3,0.2-0.6,0.3-1c0,0,0.1,0,0.1,0c0.4,0.1,0.7,0.1,1.1,0
	c0.5-0.1,1-0.2,1.4-0.5c0.4-0.3,0.8-0.6,1.2-1c0.4-0.4,0.7-0.8,0.8-1.3c0.1-0.3,0.1-0.7,0.1-1C71.2,23.2,71.1,22.8,71,22.5z
	 M64.2,27.3c0,0.2-0.1,0.5-0.2,0.7c0,0.1-0.1,0.2-0.2,0.3c-0.1,0.1-0.2,0.2-0.4,0.3c-0.1,0.1-0.3,0.1-0.4,0.1c-0.1,0-0.3,0.1-0.4,0
	c-0.2,0-0.3-0.1-0.5-0.1c-0.2-0.1-0.4-0.2-0.5-0.3c-0.2-0.2-0.4-0.3-0.5-0.5c-0.2-0.2-0.3-0.5-0.4-0.7c-0.1-0.3-0.2-0.6-0.3-1
	c-0.1-0.4-0.1-0.7,0-1.1c0.1-0.5,0.3-0.9,0.5-1.3c0.2-0.4,0.4-0.8,0.7-1.1c0.1-0.2,0.3-0.3,0.5-0.4c0.2-0.1,0.3-0.2,0.5-0.2
	c0,0,0.1,0,0.1,0c0,0.2,0,0.4,0.1,0.5c0.1,0.2,0.2,0.4,0.3,0.7c0.1,0.2,0.2,0.5,0.4,0.7s0.3,0.6,0.5,0.9l0,0c0,0.1,0.1,0.3,0.1,0.4
	c0.1,0.3,0.2,0.7,0.2,1.1c0,0.1,0,0.1,0,0.2C64.3,26.6,64.3,26.9,64.2,27.3z"/>
</svg>
