<?xml version="1.0" encoding="utf-8"?>
<!-- Generator: Adobe Illustrator 21.0.2, SVG Export Plug-In . SVG Version: 6.00 Build 0)  -->
<svg version="1.0" id="Camada_1" xmlns="http://www.w3.org/2000/svg" xmlns:xlink="http://www.w3.org/1999/xlink" x="0px" y="0px"
	 viewBox="0 0 302.3 57.8" style="enable-background:new 0 0 302.3 57.8;" xml:space="preserve">
<style type="text/css">
	.st0{fill:#00B0C7;}
	.st1{fill:#F9DF19;}
</style>
<path class="st0" d="M199,10.7C199,10.6,199,10.6,199,10.7c0.2-0.1,0.3-0.2,0.5-0.1l1.6,0.5c0.9,0.3,1.1,0,0.8-0.9l-2.6-6.4
	c-0.6-1.6-1-2-1.7-0.5l-3.3,6.6c-0.5,1-0.1,1.1,1,0.9l1.3-0.3c0.2,0,0.3,0,0.5,0.1c0.1,0.1,0.2,0.2,0.2,0.4l-0.1,1.7
	c0,0.6-0.1,1.1,0.6,1.1c0.3,0,0.3,0,0.5,0c0.5,0,0.5-0.6,0.5-1.1c0-1.1,0-0.6,0.1-1.7C198.8,10.9,198.9,10.7,199,10.7"/>
<path class="st0" d="M68.7,13.2C68.7,13.2,68.7,13.1,68.7,13.2c-0.1-0.2-0.1-0.4-0.1-0.5l0.5-1.6c0.3-0.9,0-1.1-0.8-0.8l-6.5,2.3
	c-1.6,0.6-2,0.9-0.5,1.7l6.5,3.6c1,0.5,1.1,0.2,0.9-0.9l-0.2-1.4c0-0.2,0-0.3,0.1-0.4c0.1-0.1,0.2-0.2,0.4-0.2l1.7,0.2
	c0.6,0.1,1.1,0.1,1.1-0.5c0-0.3,0-0.3,0-0.5c0-0.5-0.6-0.6-1.1-0.6c-1.1-0.1-0.6-0.1-1.7-0.2C68.9,13.3,68.8,13.3,68.7,13.2"/>
<path class="st0" d="M11.5,33.4c0.1,0,0.1,0,0.2,0c0.5,0.1,0.9,0.4,1.2,0.8l2.7,4.7c1.5,2.7,2.6,2.4,3.7-0.3l8.4-20.6
	c2.1-5.1,2.3-6.7-3-4.9L2.3,20.9c-3.4,1.2-2.8,2.3,0.2,4.2l3.8,2.4c0.4,0.3,0.7,0.7,0.8,1.2c0.1,0.5-0.1,1-0.5,1.3l-4,3.8
	c-1.5,1.4-2.6,2.3-1.1,3.8c0.6,0.6,0.6,0.6,1.2,1.2c1,1.1,2.6-0.2,3.7-1.3c2.5-2.3,1.4-1.3,3.9-3.7C10.6,33.6,11.1,33.4,11.5,33.4"
	/>
<path class="st0" d="M75.5,36.7C75.5,36.7,75.5,36.6,75.5,36.7c0-0.2,0-0.4,0.2-0.5l1.3-1.2c0.7-0.7,0.5-1-0.4-1.2l-7.2-0.9
	c-1.8-0.2-2.3-0.2-1.3,1.4l4.3,6.5c0.6,1,1,0.7,1.3-0.4l0.4-1.4c0-0.2,0.2-0.3,0.3-0.4c0.1-0.1,0.3-0.1,0.5,0l1.5,0.9
	c0.6,0.4,0.9,0.6,1.3,0c0.1-0.2,0.1-0.2,0.3-0.5c0.3-0.4-0.3-0.8-0.7-1.1c-1-0.6-0.5-0.3-1.5-0.9C75.6,36.9,75.5,36.8,75.5,36.7"/>
<path class="st1" d="M151.5,50.5C151.5,50.5,151.5,50.4,151.5,50.5c0.2-0.2,0.5-0.3,0.7-0.3l2.5,0.2c1.4,0.1,1.6-0.3,0.9-1.5
	l-5.6-8.7c-1.4-2.1-2-2.7-2.7-0.2l-3,10.6c-0.5,1.6,0.1,1.7,1.7,1l1.9-0.8c0.2-0.1,0.5-0.1,0.7,0c0.2,0.1,0.4,0.3,0.4,0.5l0.4,2.5
	c0.1,1,0.2,1.6,1.2,1.4l0.8-0.1c0.7-0.1,0.6-1,0.5-1.8c-0.2-1.6-0.1-0.9-0.4-2.5C151.3,50.8,151.3,50.6,151.5,50.5"/>
<g>
	<path class="st1" d="M113.9,31.8c0-0.5-0.1-0.9-0.2-1.4c-0.1-0.5-0.3-1-0.6-1.4c-0.2-0.4-0.5-0.8-0.9-1.1c-0.3-0.2-0.6-0.4-1-0.5
		c-0.4-0.1-0.8-0.2-1.1-0.2c-0.4,0-0.9,0.1-1.3,0.2c-0.4,0.1-0.8,0.3-1.2,0.5c-0.4,0.2-0.8,0.4-1.1,0.7c-0.3,0.3-0.7,0.5-1,0.9
		c-0.3,0.3-0.5,0.6-0.8,0.9c-0.2,0.3-0.4,0.7-0.5,1c-0.2,0.5-0.4,1-0.5,1.5c-0.1,0.6-0.2,1.1-0.2,1.7l0,0.2
		c-0.2-0.1-0.3-0.3-0.5-0.4c-0.3-0.2-0.6-0.3-0.9-0.4c-0.3-0.1-0.6-0.2-0.9-0.3c-0.4-0.1-0.8-0.2-1.2-0.2c-0.4,0-0.8,0-1.3,0
		c-0.4,0.1-0.8,0.2-1.1,0.3c-0.3,0.1-0.6,0.2-0.8,0.3c-0.2,0.1-0.4,0.2-0.7,0.4c-0.3,0.1-0.6,0.3-0.8,0.5c-0.3,0.2-0.5,0.4-0.7,0.6
		c-0.2,0.2-0.4,0.5-0.6,0.7c-0.2,0.3-0.3,0.6-0.4,1c-0.1,0.3-0.1,0.7-0.1,1c0,0.4,0,0.8,0.1,1.1l0,0c0.1,0.4,0.2,0.8,0.4,1.1
		c0.2,0.4,0.3,0.7,0.5,1.1c0.2,0.4,0.5,0.7,0.7,1c0.3,0.3,0.6,0.6,0.9,0.9c0.3,0.3,0.7,0.5,1.1,0.8c0.4,0.2,0.7,0.4,1,0.6
		s0.5,0.3,0.7,0.4c0.3,0.1,0.5,0.3,0.8,0.4c0.3,0.2,0.6,0.3,1,0.5c0.3,0.1,0.6,0.3,0.9,0.5c0.3,0.2,0.7,0.4,1,0.6
		c0.3,0.2,0.7,0.3,1.1,0.5c0.3,0.2,0.7,0.4,1,0.6c0.4,0.2,0.7,0.4,0.9,0.6c0.2,0.1,0.3,0.2,0.5,0.3c0.1,0,0.2,0.1,0.2,0.2
		c0.1,0.3,0.3,0.5,0.6,0.6c0.3,0.2,0.7,0.2,1,0c0.4-0.1,0.6-0.4,0.8-0.7l0.2-0.4c0.1-0.3,0.3-0.6,0.6-1c0.2-0.4,0.4-0.8,0.6-1.3
		c0.2-0.4,0.4-0.8,0.6-1.2s0.4-0.8,0.6-1.2c0.2-0.4,0.4-0.9,0.5-1.3c0.2-0.4,0.3-0.7,0.4-0.9c0.1-0.3,0.2-0.6,0.4-1.1
		c0.1-0.5,0.3-0.9,0.4-1.4c0.1-0.4,0.2-0.9,0.3-1.3c0.1-0.5,0.2-1,0.3-1.4c0.1-0.5,0.2-1,0.2-1.5c0.1-0.6,0.2-1.1,0.2-1.7
		C114,33.1,114,32.4,113.9,31.8z M111.3,33.6c0,0.5-0.1,1-0.2,1.5c-0.1,0.5-0.1,1-0.2,1.4c-0.1,0.4-0.2,0.8-0.2,1.2
		c-0.1,0.4-0.2,0.8-0.3,1.3c-0.1,0.4-0.2,0.8-0.4,1.2c-0.1,0.4-0.2,0.7-0.3,0.8c-0.1,0.2-0.2,0.6-0.4,1c-0.2,0.4-0.3,0.8-0.5,1.2
		s-0.3,0.8-0.5,1.2c-0.2,0.4-0.4,0.8-0.5,1.2c-0.2,0.4-0.3,0.7-0.5,1.1c0,0,0,0,0,0c-0.2-0.1-0.4-0.3-0.8-0.5
		c-0.4-0.3-0.8-0.5-1.2-0.7c-0.4-0.2-0.7-0.3-1-0.5c-0.3-0.2-0.6-0.3-0.9-0.5c-0.3-0.2-0.7-0.4-1.1-0.6c-0.4-0.2-0.7-0.3-1.1-0.5
		c-0.3-0.2-0.5-0.3-0.7-0.3s-0.3-0.2-0.6-0.3c-0.3-0.2-0.6-0.4-1-0.6c-0.3-0.2-0.6-0.4-0.8-0.6c-0.2-0.2-0.4-0.4-0.6-0.6
		c-0.2-0.2-0.3-0.4-0.5-0.6l0,0c-0.1-0.2-0.3-0.5-0.4-0.8c-0.1-0.2-0.2-0.4-0.2-0.7c0-0.1-0.1-0.3-0.1-0.4c0-0.1,0-0.2,0.1-0.4
		c0,0,0-0.1,0-0.1c0-0.1,0.1-0.1,0.2-0.2l0.3-0.2c0.1-0.1,0.3-0.2,0.5-0.3c0.2-0.1,0.4-0.2,0.6-0.3c0.1,0,0.3-0.1,0.5-0.2
		s0.5-0.1,0.7-0.2c0.2,0,0.5,0,0.7,0c0.2,0,0.4,0,0.6,0.1c0.2,0.1,0.4,0.1,0.7,0.2c0.2,0,0.3,0.1,0.4,0.2c0.1,0.1,0.3,0.2,0.4,0.3
		c0.2,0.1,0.3,0.3,0.5,0.5c0.2,0.2,0.4,0.4,0.6,0.7c0.2,0.2,0.4,0.4,0.6,0.6c0,0,0.1,0.1,0.2,0.1c0.1,0,0.2,0.1,0.4,0.1
		c0.2,0.1,0.3,0.1,0.5,0.1c0.2,0,0.4,0,0.6,0c0.2,0,0.4,0,0.5-0.1c0.2-0.1,0.3-0.3,0.4-0.4c0.1-0.3,0.2-0.5,0.2-0.8
		c0-0.2,0-0.4,0-0.6c0-0.2,0-0.4,0-0.7c0-0.3,0-0.7,0-1c0-0.3,0-0.7,0-1.1c0-0.4,0.1-0.7,0.1-1.1c0.1-0.3,0.1-0.6,0.3-0.9
		c0.1-0.2,0.2-0.4,0.3-0.6c0.1-0.2,0.2-0.4,0.4-0.5c0.4-0.4,0.8-0.7,1.3-1c0.2-0.1,0.5-0.2,0.8-0.3c0.2-0.1,0.3-0.1,0.5-0.1
		c0.1,0,0.3,0,0.4,0c0.1,0,0.1,0,0.2,0.1c0.1,0.1,0.2,0.3,0.3,0.4c0.1,0.2,0.2,0.4,0.2,0.6c0.1,0.4,0.1,0.7,0.2,1.1
		C111.3,32.7,111.3,33.2,111.3,33.6z"/>
	<path class="st1" d="M96.6,57C96.6,57,96.6,57.1,96.6,57c0.5,0.5,1.1,0.8,1.8,0.7c0.7,0,1.3-0.3,1.8-0.8l0.2-0.3
		c0.4-0.6,0.7-1.2,0.8-1.9c0.2-0.8-0.1-1.7-0.8-2.2c-0.8-0.6-1.8-0.7-2.8-0.4c-1,0.2-1.7,0.9-2,1.8l0,0.2c-0.2,0.5-0.2,1.1,0,1.6
		C95.8,56.3,96.1,56.7,96.6,57"/>
</g>
<g>
	<path class="st1" d="M258.2,5c-0.1-0.3-0.3-0.5-0.6-0.7c-0.3-0.3-0.5-0.5-0.9-0.6c-0.3-0.2-0.6-0.3-1-0.4c-0.3-0.1-0.7-0.2-1.1-0.2
		c-0.3,0-0.7-0.1-1-0.1c-0.3,0-0.7,0-1,0.1c-0.3,0.1-0.6,0.2-0.8,0.3c-0.4,0.2-0.8,0.4-1.1,0.6c-0.4,0.2-0.8,0.5-1.1,0.9l-0.1,0.1
		c0-0.2,0-0.4-0.1-0.5c-0.1-0.2-0.1-0.5-0.2-0.7c-0.1-0.2-0.2-0.5-0.3-0.7c-0.2-0.3-0.3-0.5-0.6-0.8c-0.4-0.5-0.9-0.9-1.5-1.2
		c-0.2-0.1-0.4-0.2-0.7-0.3c-0.2-0.1-0.4-0.2-0.6-0.2c-0.2-0.1-0.5-0.1-0.8-0.2c-0.2-0.1-0.5-0.1-0.7-0.1c-0.3,0-0.5,0-0.8,0.1
		c-0.3,0.1-0.5,0.2-0.8,0.3c-0.2,0.2-0.4,0.3-0.6,0.5c-0.2,0.2-0.4,0.4-0.6,0.7l0,0c-0.2,0.3-0.3,0.5-0.4,0.8
		c-0.1,0.3-0.2,0.6-0.3,0.9c-0.1,0.3-0.1,0.7-0.2,1c0,0.3,0,0.7,0,1.1c0,0.4,0.1,0.7,0.2,1.1c0.1,0.4,0.2,0.7,0.2,0.9
		c0,0.2,0.1,0.4,0.2,0.6c0.1,0.2,0.1,0.5,0.2,0.7c0.1,0.2,0.2,0.5,0.3,0.9c0.1,0.3,0.2,0.5,0.2,0.8c0.1,0.3,0.2,0.6,0.2,0.9
		s0.2,0.6,0.3,0.9c0.1,0.3,0.2,0.6,0.2,0.9c0.1,0.4,0.1,0.6,0.2,0.8c0,0.2,0.1,0.3,0.1,0.4c0,0.1,0,0.1,0.1,0.2
		c-0.1,0.2-0.1,0.5,0,0.7c0.1,0.3,0.3,0.5,0.6,0.6c0.3,0.1,0.6,0.1,0.9,0.1l0.4-0.1c0.2-0.1,0.6-0.2,0.9-0.3
		c0.4-0.1,0.7-0.2,1.1-0.4c0.3-0.1,0.7-0.2,1-0.4s0.7-0.2,1-0.4c0.3-0.1,0.7-0.3,1.1-0.5c0.3-0.1,0.6-0.2,0.7-0.3
		c0.2-0.1,0.5-0.2,0.9-0.4c0.3-0.2,0.7-0.4,1-0.6c0.3-0.2,0.6-0.4,0.9-0.6c0.3-0.2,0.7-0.4,1-0.7c0.3-0.2,0.6-0.5,1-0.7
		c0.4-0.3,0.7-0.5,1.1-0.8c0.4-0.3,0.7-0.7,1-1.1c0.2-0.3,0.5-0.6,0.7-0.9c0.2-0.4,0.4-0.7,0.4-1.1c0.1-0.4,0.2-0.8,0.1-1.2
		C258.5,5.6,258.4,5.3,258.2,5z M256.2,6.6c0,0.2-0.1,0.3-0.2,0.4c-0.2,0.2-0.3,0.5-0.5,0.7c-0.2,0.3-0.5,0.5-0.7,0.8
		c-0.3,0.3-0.6,0.5-0.9,0.8c-0.3,0.2-0.6,0.5-0.9,0.7c-0.3,0.2-0.6,0.4-0.8,0.5c-0.3,0.2-0.6,0.4-0.9,0.5c-0.3,0.2-0.6,0.3-0.9,0.5
		c-0.3,0.1-0.5,0.3-0.7,0.3c-0.2,0.1-0.5,0.2-0.8,0.4c-0.3,0.1-0.6,0.3-0.9,0.4s-0.6,0.2-1,0.4c-0.3,0.1-0.6,0.2-1,0.3
		c-0.3,0.1-0.6,0.2-0.9,0.3c0,0,0,0,0,0c0-0.2-0.1-0.4-0.2-0.8c-0.1-0.4-0.2-0.7-0.3-1.1c-0.1-0.3-0.2-0.6-0.3-0.9
		c-0.1-0.2-0.2-0.5-0.2-0.8c-0.1-0.3-0.2-0.6-0.3-0.9c-0.1-0.3-0.2-0.6-0.3-0.9c-0.1-0.3-0.2-0.5-0.2-0.6c0-0.1-0.1-0.3-0.2-0.5
		c-0.1-0.3-0.1-0.6-0.2-0.9c-0.1-0.3-0.1-0.5-0.2-0.8c0-0.2,0-0.4,0-0.7c0-0.2,0-0.4,0.1-0.6h0c0.1-0.2,0.2-0.4,0.2-0.7
		c0.1-0.2,0.2-0.3,0.2-0.5c0.1-0.1,0.1-0.2,0.2-0.3c0.1-0.1,0.2-0.1,0.2-0.2c0,0,0-0.1,0.1-0.1c0,0,0.1,0,0.2,0l0.3,0
		c0.1,0,0.3,0.1,0.5,0.1c0.2,0,0.3,0.1,0.5,0.2c0.1,0.1,0.2,0.1,0.4,0.2c0.2,0.1,0.3,0.2,0.5,0.3c0.1,0.1,0.3,0.2,0.4,0.4
		c0.1,0.1,0.2,0.2,0.3,0.4c0.1,0.2,0.2,0.4,0.3,0.5c0.1,0.1,0.1,0.2,0.1,0.4c0,0.1,0,0.3,0,0.4c0,0.2,0,0.4,0,0.6v0.7
		c0,0.2,0,0.5,0,0.7c0,0,0,0.1,0,0.1c0,0.1,0.1,0.2,0.1,0.3c0.1,0.1,0.1,0.3,0.2,0.4c0.1,0.1,0.2,0.2,0.3,0.3
		c0.1,0.1,0.2,0.2,0.4,0.2c0.2,0,0.3,0,0.4,0c0.2-0.1,0.4-0.2,0.6-0.4c0.1-0.1,0.2-0.2,0.3-0.4c0.1-0.1,0.3-0.2,0.4-0.4
		c0.2-0.2,0.4-0.4,0.6-0.6c0.2-0.2,0.4-0.4,0.6-0.6c0.2-0.2,0.5-0.4,0.7-0.6c0.2-0.2,0.4-0.3,0.7-0.4c0.2-0.1,0.3-0.1,0.5-0.2
		c0.2,0,0.3-0.1,0.5-0.1c0.2,0,0.4,0,0.6,0c0.2,0,0.4,0.1,0.7,0.2c0.2,0.1,0.4,0.2,0.6,0.3c0.1,0.1,0.3,0.1,0.3,0.2
		c0.1,0.1,0.2,0.2,0.2,0.3c0,0,0,0.1,0.1,0.1C256.2,6.4,256.2,6.5,256.2,6.6z"/>
	<path class="st1" d="M233.1,13.6C233.1,13.6,233.1,13.6,233.1,13.6c0,0.6,0.2,1.1,0.6,1.5c0.4,0.4,0.9,0.6,1.4,0.6l0.3,0
		c0.6-0.1,1.1-0.3,1.5-0.7c0.6-0.4,0.9-1,0.8-1.7c-0.1-0.8-0.6-1.5-1.4-1.8c-0.6-0.4-1.5-0.5-2.1-0.1l-0.1,0.1
		c-0.4,0.2-0.7,0.5-0.9,0.9C233,12.7,233,13.1,233.1,13.6"/>
</g>
<g>
	<path class="st1" d="M164.7,12.5c-0.2-0.3-0.3-0.5-0.6-0.7c-0.3-0.3-0.6-0.5-0.9-0.6c-0.3-0.2-0.6-0.3-1-0.4
		c-0.3-0.1-0.7-0.2-1.1-0.2c-0.3,0-0.7-0.1-1-0.1c-0.3,0-0.7,0-1,0.1c-0.3,0.1-0.6,0.2-0.9,0.3c-0.4,0.2-0.8,0.4-1.1,0.6
		c-0.4,0.2-0.8,0.5-1.1,0.8l-0.1,0.1c0-0.2,0-0.4-0.1-0.5c-0.1-0.2-0.1-0.5-0.2-0.7c-0.1-0.2-0.2-0.5-0.3-0.7
		c-0.2-0.3-0.4-0.5-0.6-0.8c-0.2-0.3-0.5-0.5-0.7-0.7c-0.3-0.2-0.5-0.3-0.8-0.5c-0.2-0.1-0.4-0.2-0.7-0.3c-0.2-0.1-0.4-0.1-0.6-0.2
		c-0.2-0.1-0.5-0.2-0.8-0.2c-0.5-0.1-1-0.1-1.5,0c-0.3,0.1-0.5,0.2-0.8,0.3c-0.2,0.1-0.4,0.3-0.6,0.5c-0.2,0.2-0.4,0.4-0.6,0.7l0,0
		c-0.2,0.3-0.3,0.5-0.4,0.8c-0.1,0.3-0.2,0.6-0.3,0.9c-0.1,0.3-0.1,0.7-0.2,1c0,0.3,0,0.7,0,1.1c0,0.4,0.1,0.7,0.2,1.1
		c0.1,0.4,0.2,0.7,0.2,0.9s0.1,0.5,0.2,0.6c0.1,0.2,0.1,0.5,0.2,0.7c0.1,0.2,0.2,0.5,0.3,0.9c0.1,0.3,0.2,0.5,0.2,0.8
		c0.1,0.3,0.2,0.6,0.3,0.9c0.1,0.3,0.2,0.6,0.3,0.9c0.1,0.3,0.2,0.6,0.2,0.9c0.1,0.4,0.1,0.6,0.2,0.8c0,0.2,0.1,0.3,0.1,0.4
		c0,0.1,0,0.1,0,0.2c-0.1,0.2-0.1,0.5,0,0.7c0.1,0.3,0.3,0.5,0.6,0.6c0.3,0.1,0.6,0.1,0.9,0.1l0.4-0.1c0.3-0.1,0.6-0.2,0.9-0.3
		c0.4-0.1,0.7-0.2,1.1-0.4c0.3-0.1,0.7-0.2,1-0.4s0.7-0.2,1-0.4c0.4-0.1,0.7-0.3,1.1-0.5c0.3-0.1,0.6-0.2,0.7-0.3
		c0.2-0.1,0.5-0.2,0.9-0.4c0.3-0.2,0.7-0.4,1-0.6c0.3-0.2,0.6-0.4,0.9-0.6c0.3-0.2,0.7-0.4,1-0.7c0.3-0.2,0.6-0.5,1-0.7
		c0.4-0.3,0.7-0.5,1.1-0.8c0.4-0.3,0.7-0.7,1-1.1c0.2-0.3,0.5-0.6,0.7-0.9c0.2-0.4,0.3-0.7,0.4-1.1c0.1-0.4,0.1-0.8,0.1-1.2
		C165,13.1,164.9,12.8,164.7,12.5z M162.6,14.1c0,0.2-0.1,0.3-0.2,0.4c-0.2,0.2-0.3,0.5-0.5,0.7c-0.2,0.3-0.5,0.5-0.7,0.8
		c-0.3,0.3-0.6,0.5-0.9,0.8c-0.3,0.2-0.6,0.5-0.9,0.7c-0.3,0.2-0.6,0.4-0.8,0.5c-0.3,0.2-0.6,0.4-0.9,0.5c-0.3,0.2-0.6,0.3-0.9,0.5
		c-0.3,0.1-0.5,0.3-0.7,0.3c-0.2,0.1-0.5,0.2-0.8,0.4c-0.3,0.1-0.6,0.3-0.9,0.4s-0.6,0.2-1,0.4c-0.3,0.1-0.6,0.2-1,0.3
		c-0.3,0.1-0.6,0.2-0.9,0.3c0,0,0,0,0,0c0-0.2-0.1-0.4-0.2-0.8c-0.1-0.4-0.2-0.7-0.3-1.1c-0.1-0.3-0.2-0.6-0.3-0.9
		c-0.1-0.2-0.2-0.5-0.2-0.8c-0.1-0.3-0.2-0.6-0.3-0.9c-0.1-0.3-0.2-0.6-0.3-0.9c-0.1-0.3-0.2-0.5-0.2-0.6c0-0.1-0.1-0.3-0.2-0.5
		c-0.1-0.3-0.1-0.6-0.2-0.9c-0.1-0.3-0.1-0.5-0.2-0.8c0-0.2,0-0.4,0-0.7c0-0.2,0-0.4,0.1-0.6h0c0.1-0.2,0.1-0.4,0.2-0.7
		c0.1-0.2,0.2-0.3,0.3-0.5c0.1-0.1,0.1-0.2,0.2-0.3c0.1-0.1,0.2-0.1,0.2-0.2c0,0,0.1,0,0.1-0.1c0,0,0.1,0,0.2,0l0.3,0
		c0.1,0,0.3,0.1,0.5,0.1c0.2,0,0.3,0.1,0.5,0.2c0.1,0,0.2,0.1,0.4,0.2c0.2,0.1,0.3,0.2,0.5,0.3c0.1,0.1,0.3,0.2,0.4,0.4
		c0.1,0.1,0.2,0.2,0.3,0.4c0.1,0.2,0.2,0.3,0.3,0.5c0.1,0.1,0.1,0.2,0.1,0.4c0,0.1,0,0.3,0,0.4c0,0.2,0,0.4,0,0.6c0,0.2,0,0.5,0,0.7
		s0,0.5,0,0.7c0,0,0,0.1,0,0.1c0,0.1,0.1,0.2,0.1,0.3c0.1,0.1,0.1,0.3,0.2,0.4c0.1,0.1,0.2,0.2,0.3,0.3c0.1,0.1,0.2,0.2,0.4,0.2
		c0.2,0,0.3,0,0.5,0c0.2-0.1,0.4-0.2,0.6-0.4c0.1-0.1,0.2-0.2,0.3-0.4c0.1-0.1,0.3-0.2,0.4-0.4c0.2-0.2,0.4-0.4,0.6-0.6
		c0.2-0.2,0.4-0.4,0.6-0.6c0.2-0.2,0.5-0.4,0.7-0.6c0.2-0.2,0.4-0.3,0.7-0.4c0.2-0.1,0.3-0.1,0.5-0.2c0.2,0,0.3-0.1,0.5-0.1
		c0.2,0,0.4,0,0.6,0c0.2,0,0.4,0.1,0.7,0.2c0.2,0.1,0.4,0.2,0.6,0.3c0.1,0.1,0.2,0.1,0.3,0.2c0.1,0.1,0.2,0.2,0.2,0.3
		c0,0,0,0.1,0,0.1C162.7,13.9,162.7,14,162.6,14.1z"/>
	<path class="st1" d="M139.5,21.1C139.5,21.1,139.5,21.1,139.5,21.1c0,0.6,0.2,1.1,0.6,1.5c0.4,0.4,0.9,0.6,1.4,0.6l0.3,0
		c0.6-0.1,1.1-0.3,1.5-0.7c0.6-0.4,0.9-1,0.8-1.7c0-0.4-0.2-0.7-0.4-1.1c-0.2-0.3-0.6-0.6-0.9-0.8c-0.6-0.5-1.5-0.5-2.1-0.1
		l-0.1,0.1c-0.4,0.2-0.7,0.5-0.9,0.9C139.5,20.2,139.4,20.6,139.5,21.1"/>
</g>
<path class="st0" d="M261,43.8L261,43.8c-0.1,0.2-0.1,0.4-0.1,0.5l0.6,1.6c0.3,0.9,0.1,1.1-0.8,0.8l-6.6-2.1
	c-1.6-0.5-2.1-0.8-0.6-1.7l6.3-3.8c0.9-0.6,1.1-0.2,1,0.9l-0.2,1.4c0,0.2,0,0.3,0.1,0.4c0.1,0.1,0.3,0.2,0.4,0.2l1.7-0.2
	c0.6-0.1,1.1-0.2,1.1,0.5c0,0.3,0,0.3,0.1,0.5c0.1,0.5-0.6,0.6-1.1,0.6c-1.1,0.1-0.6,0.1-1.7,0.2C261.2,43.7,261.1,43.7,261,43.8"/>
<path class="st0" d="M222.8,24.5C222.8,24.5,222.8,24.5,222.8,24.5c-0.2-0.1-0.4-0.1-0.5-0.1l-1.5,0.7c-0.9,0.4-1.1,0.1-0.9-0.8
	l1.8-6.7c0.4-1.7,0.7-2.1,1.7-0.7l4.1,6.2c0.6,0.9,0.3,1.1-0.8,1l-1.4-0.1c-0.2,0-0.3,0-0.4,0.2c-0.1,0.1-0.2,0.3-0.1,0.4l0.3,1.7
	c0.1,0.6,0.2,1.1-0.4,1.2c-0.3,0.1-0.3,0.1-0.5,0.1c-0.5,0.1-0.6-0.5-0.7-1c-0.2-1.1-0.1-0.6-0.3-1.7
	C223,24.7,222.9,24.6,222.8,24.5"/>
<g>
	<g>
		<polygon class="st1" points="230.8,42.3 230.8,42.3 230.8,42.3 		"/>
		<path class="st1" d="M239.6,42.8c-0.1-0.2-0.2-0.3-0.4-0.3c-0.1,0-0.3,0-0.4,0.1c-0.1,0-0.1,0-0.1,0c-0.1,0-0.2,0-0.3,0
			s-0.3,0-0.5-0.1c-0.2,0-0.4,0-0.5-0.1c-0.2-0.1-0.4-0.1-0.6-0.1s-0.4-0.1-0.6-0.1c-0.2,0-0.3-0.1-0.5-0.1c-0.2,0-0.4-0.1-0.5-0.1
			c-0.1,0-0.3-0.1-0.4-0.1c-0.1,0-0.2,0-0.4-0.1s-0.4-0.1-0.6-0.1c-0.2,0-0.4-0.1-0.7-0.1c-0.2,0-0.4,0-0.6,0.1
			c-0.2,0-0.4,0.1-0.6,0.2c-0.2,0.1-0.4,0.1-0.5,0.2c-0.2,0.1-0.3,0.2-0.5,0.3c-0.1,0.1-0.3,0.2-0.4,0.4c-0.1,0.1-0.2,0.3-0.3,0.4
			c-0.1,0.2-0.1,0.3-0.2,0.5c0,0.2,0,0.3,0,0.5c0,0.1,0.1,0.3,0.1,0.4c0,0.2,0.1,0.3,0.2,0.4c0.1,0.2,0.1,0.3,0.2,0.4
			c0.1,0.1,0.1,0.2,0.2,0.4c0.1,0.2,0.2,0.3,0.3,0.5c0.1,0.1,0.3,0.3,0.5,0.4c0.2,0.1,0.3,0.2,0.5,0.3c0.2,0.1,0.3,0.1,0.4,0.2
			c0.1,0.1,0.3,0.1,0.5,0.1c0.1,0,0.2,0,0.3,0l-0.1,0.1c-0.2,0.2-0.3,0.4-0.5,0.7c-0.1,0.2-0.2,0.5-0.3,0.7
			c-0.1,0.2-0.1,0.3-0.1,0.5c0,0.2,0,0.4,0,0.6c0,0.2,0.1,0.4,0.1,0.6c0.1,0.2,0.1,0.4,0.2,0.6c0.1,0.2,0.2,0.4,0.3,0.6
			c0.1,0.2,0.3,0.4,0.4,0.5c0.1,0.1,0.3,0.2,0.5,0.3c0.2,0.1,0.4,0.1,0.5,0.1c0.2,0,0.5-0.1,0.7-0.2c0.2-0.1,0.5-0.2,0.7-0.3
			c0.2-0.1,0.4-0.3,0.5-0.4c0.2-0.2,0.4-0.4,0.6-0.7c0.2-0.2,0.3-0.5,0.4-0.7c0.1-0.2,0.3-0.4,0.4-0.6c0.1-0.2,0.2-0.4,0.3-0.6
			c0.1-0.2,0.2-0.4,0.3-0.6c0.1-0.2,0.2-0.4,0.3-0.6s0.2-0.4,0.2-0.6c0-0.1,0.1-0.3,0.2-0.5s0.2-0.4,0.2-0.7
			c0.1-0.2,0.1-0.4,0.2-0.6s0.1-0.4,0.2-0.6c0.1-0.2,0.1-0.4,0.2-0.7s0.1-0.4,0.1-0.6l0.1-0.2C239.7,43.1,239.7,42.9,239.6,42.8z
			 M238,44.4c-0.1,0.2-0.1,0.4-0.2,0.6c-0.1,0.2-0.1,0.4-0.2,0.6c-0.1,0.2-0.1,0.4-0.2,0.6s-0.1,0.4-0.2,0.5c0,0.1-0.1,0.2-0.2,0.4
			c-0.1,0.2-0.2,0.4-0.2,0.6c-0.1,0.2-0.2,0.4-0.3,0.6c-0.1,0.2-0.2,0.3-0.3,0.5c-0.1,0.2-0.3,0.4-0.4,0.6c-0.1,0.2-0.3,0.4-0.4,0.6
			c-0.1,0.2-0.3,0.3-0.4,0.5c-0.1,0.1-0.3,0.2-0.4,0.3c-0.1,0.1-0.2,0.1-0.3,0.1c-0.1,0-0.2,0.1-0.2,0.1c0,0-0.1,0-0.1,0
			c-0.1,0-0.1-0.1-0.2-0.1c-0.1,0-0.1-0.1-0.2-0.2c-0.1-0.1-0.1-0.2-0.2-0.3c-0.1-0.1-0.1-0.3-0.1-0.4c0-0.1,0-0.3-0.1-0.4
			c0-0.1,0-0.2,0-0.3c0-0.1,0-0.2,0.1-0.3c0-0.2,0.1-0.3,0.2-0.4c0.1-0.2,0.2-0.3,0.3-0.5c0.1-0.2,0.2-0.3,0.3-0.4s0.2-0.2,0.3-0.4
			s0.2-0.2,0.2-0.3c0.1-0.1,0.2-0.2,0.2-0.2c0.1-0.1,0.2-0.2,0.2-0.4c0-0.1,0-0.2,0-0.3c0-0.1-0.1-0.2-0.2-0.2
			c-0.1-0.1-0.1-0.1-0.2-0.2c-0.1,0-0.2-0.1-0.2-0.1l-0.2-0.1c0,0-0.1,0-0.1,0c-0.1,0-0.3,0-0.4,0.1s-0.3,0-0.4,0.1
			c-0.1,0-0.2,0-0.3,0c-0.1,0-0.2,0-0.2,0c-0.1,0-0.2,0-0.2-0.1c-0.1,0-0.2-0.1-0.3-0.1c-0.1,0-0.2-0.1-0.2-0.2
			c-0.1-0.1-0.2-0.1-0.2-0.2c-0.1-0.1-0.1-0.2-0.2-0.3c-0.1-0.1-0.1-0.2-0.2-0.2c0-0.1-0.1-0.2-0.1-0.3s-0.1-0.2-0.1-0.3l0-0.2
			c0,0,0-0.1,0-0.1c0,0,0,0,0-0.1c0-0.1,0.1-0.1,0.1-0.2c0-0.1,0.1-0.1,0.2-0.1c0.1-0.1,0.2-0.1,0.3-0.2c0.1-0.1,0.3-0.1,0.4-0.2
			l0,0c0.1,0,0.2-0.1,0.4-0.1c0.1,0,0.3-0.1,0.4-0.1c0.2,0,0.3,0,0.5,0.1c0.2,0,0.4,0.1,0.6,0.1c0.1,0,0.3,0.1,0.3,0.1
			s0.2,0.1,0.4,0.1s0.4,0.1,0.6,0.1c0.2,0,0.4,0.1,0.6,0.1c0.2,0,0.4,0.1,0.5,0.1c0.2,0,0.3,0.1,0.5,0.1c0.2,0.1,0.5,0.1,0.7,0.1
			c0.2,0,0.3,0,0.5,0.1l0,0C238.1,44.1,238.1,44.3,238,44.4z"/>
	</g>
	<path class="st1" d="M237.5,36.7L237.5,36.7c0.3,0,0.7,0.1,0.9,0.3c0.2,0.2,0.4,0.5,0.4,0.8l0,0.2c0,0.4-0.1,0.7-0.3,1
		c-0.2,0.4-0.6,0.6-1,0.6c-0.2,0-0.5-0.1-0.7-0.2c-0.2-0.1-0.4-0.3-0.5-0.5c-0.3-0.4-0.4-0.9-0.2-1.3l0-0.1c0.1-0.3,0.3-0.5,0.5-0.6
		C236.9,36.7,237.2,36.6,237.5,36.7"/>
</g>
<g>
	<path class="st1" d="M295.6,34.3c-0.1-0.2-0.4-0.4-0.6-0.5l-0.3-0.1c-0.2-0.1-0.5-0.2-0.8-0.2s-0.6-0.2-1-0.2s-0.6-0.2-0.9-0.2
		s-0.6-0.2-0.9-0.2c-0.3-0.1-0.7-0.1-1-0.2c-0.3-0.1-0.5-0.1-0.7-0.1l-0.8-0.1c-0.3,0-0.7-0.1-1-0.1l-0.9,0c-0.3,0-0.7,0-1.1,0
		c-0.4,0-0.7,0-1.1,0.1c-0.4,0-0.8,0-1.2,0.1c-0.4,0-0.9,0.1-1.3,0.3c-0.3,0.1-0.6,0.2-0.9,0.3c-0.3,0.2-0.6,0.4-0.9,0.6
		c-0.3,0.2-0.5,0.5-0.7,0.8c-0.1,0.2-0.2,0.5-0.2,0.8c0,0.3,0,0.6,0.1,0.8c0.1,0.3,0.2,0.6,0.3,0.9c0.2,0.3,0.3,0.5,0.5,0.8
		c0.2,0.3,0.4,0.5,0.7,0.7c0.2,0.2,0.5,0.4,0.7,0.6c0.2,0.2,0.5,0.3,0.8,0.4c0.3,0.1,0.5,0.2,0.8,0.2c0.4,0.1,0.7,0.1,1.1,0.1
		c0.4,0,0.8,0,1.2-0.1l0.2,0c-0.1,0.1-0.1,0.3-0.2,0.4c-0.1,0.2-0.1,0.4-0.2,0.7c0,0.2-0.1,0.4-0.1,0.7c0,0.3,0,0.6,0.1,0.8
		c0,0.3,0.1,0.6,0.2,0.9c0.1,0.3,0.2,0.5,0.4,0.8c0.1,0.2,0.2,0.4,0.3,0.5c0.1,0.1,0.2,0.3,0.4,0.4c0.1,0.2,0.3,0.4,0.5,0.5
		c0.2,0.2,0.3,0.3,0.5,0.4c0.2,0.1,0.4,0.2,0.6,0.3c0.2,0.1,0.5,0.1,0.7,0.1c0.2,0,0.5,0,0.7-0.1c0.3,0,0.5-0.1,0.8-0.2v0
		c0.3-0.1,0.5-0.2,0.7-0.4c0.2-0.2,0.5-0.3,0.7-0.5c0.2-0.2,0.4-0.4,0.6-0.7c0.2-0.2,0.4-0.5,0.5-0.8c0.2-0.3,0.3-0.6,0.4-0.9
		c0.1-0.3,0.2-0.6,0.3-0.8s0.1-0.4,0.2-0.6c0.1-0.2,0.1-0.4,0.2-0.6c0.1-0.2,0.1-0.5,0.2-0.8c0.1-0.2,0.1-0.5,0.2-0.7
		c0.1-0.3,0.2-0.5,0.3-0.8s0.1-0.5,0.2-0.8c0.1-0.3,0.2-0.5,0.3-0.8c0.1-0.3,0.2-0.5,0.3-0.7c0-0.1,0.1-0.2,0.2-0.4
		c0-0.1,0-0.1,0.1-0.2c0.2-0.1,0.3-0.3,0.4-0.5C295.8,34.7,295.7,34.5,295.6,34.3z M293.2,35.3c-0.1,0.1-0.1,0.3-0.3,0.6
		c-0.1,0.3-0.2,0.6-0.3,0.9c-0.1,0.3-0.2,0.5-0.2,0.8c-0.1,0.2-0.2,0.5-0.2,0.7c-0.1,0.3-0.2,0.5-0.2,0.8c-0.1,0.3-0.2,0.5-0.2,0.8
		c-0.1,0.2-0.1,0.4-0.1,0.5s-0.1,0.3-0.2,0.5c-0.1,0.2-0.2,0.5-0.3,0.8c-0.1,0.2-0.2,0.5-0.3,0.7c-0.1,0.2-0.2,0.3-0.3,0.5
		c-0.1,0.1-0.2,0.3-0.4,0.4h0c-0.2,0.1-0.3,0.2-0.5,0.4c-0.1,0.1-0.3,0.2-0.4,0.2c-0.1,0-0.2,0.1-0.3,0.1c-0.1,0-0.2,0-0.3,0
		c0,0-0.1,0-0.1,0c-0.1,0-0.1,0-0.2-0.1c-0.1-0.1-0.1-0.1-0.2-0.2c-0.1-0.1-0.2-0.2-0.3-0.3c-0.1-0.1-0.2-0.2-0.3-0.4
		c-0.1-0.1-0.1-0.2-0.2-0.3c-0.1-0.1-0.2-0.3-0.2-0.5c-0.1-0.2-0.1-0.3-0.1-0.5c0-0.1,0-0.3,0-0.4c0-0.2,0-0.3,0.1-0.5
		c0-0.1,0-0.2,0.1-0.3c0-0.1,0.1-0.2,0.2-0.3c0.1-0.1,0.2-0.3,0.3-0.4c0.1-0.2,0.2-0.3,0.4-0.5c0.1-0.2,0.2-0.3,0.3-0.5
		c0,0,0-0.1,0-0.1s0-0.2,0-0.3c0-0.1,0-0.3,0-0.4c0-0.1,0-0.3-0.1-0.4c0-0.1-0.1-0.2-0.2-0.3c-0.1-0.1-0.2-0.2-0.3-0.2
		c-0.2,0-0.4,0-0.6,0l-0.4,0.1c-0.1,0-0.3,0-0.5,0.1s-0.5,0.1-0.7,0.2s-0.5,0.1-0.8,0.2c-0.3,0-0.5,0.1-0.8,0.1
		c-0.2,0-0.5,0-0.7-0.1c-0.2,0-0.3-0.1-0.4-0.1c-0.1,0-0.3-0.1-0.4-0.2c-0.3-0.2-0.6-0.5-0.9-0.8c-0.1-0.2-0.2-0.3-0.3-0.5
		c-0.1-0.1-0.1-0.2-0.1-0.3c0-0.1,0-0.2,0-0.3l0-0.1c0.1-0.1,0.2-0.2,0.2-0.3c0.1-0.1,0.2-0.2,0.4-0.2c0.2-0.1,0.5-0.2,0.7-0.3
		c0.3-0.1,0.6-0.2,0.9-0.2c0.4,0,0.7-0.1,1.1-0.1l1-0.1h0.9c0.3,0,0.6,0,0.9,0.1c0.3,0,0.6,0,0.9,0.1c0.3,0,0.5,0,0.6,0.1
		c0.2,0,0.4,0.1,0.8,0.1c0.3,0.1,0.6,0.1,0.9,0.2c0.3,0.1,0.6,0.1,0.9,0.2c0.3,0.1,0.6,0.1,0.9,0.2
		C292.7,35.1,292.9,35.2,293.2,35.3C293.2,35.3,293.2,35.3,293.2,35.3z"/>
	<path class="st1" d="M301.9,41.2C301.9,41.2,301.9,41.2,301.9,41.2c0.3-0.4,0.4-0.9,0.3-1.4c-0.1-0.5-0.4-0.9-0.8-1.1l-0.2-0.1
		c-0.4-0.2-1-0.3-1.5-0.3c-0.6,0-1.2,0.3-1.5,0.9c-0.2,0.3-0.2,0.6-0.2,1c0,0.4,0.1,0.7,0.3,1c0.2,0.6,0.9,1.1,1.5,1.1l0.1,0
		c0.4,0.1,0.8,0,1.2-0.2C301.5,41.9,301.8,41.6,301.9,41.2"/>
</g>
<path class="st0" d="M196.2,37.9L196.2,37.9c-0.2-0.6-0.4-1.1-0.7-1.6c-0.3-0.5-0.5-1-0.9-1.5c-0.3-0.4-0.6-0.7-0.9-1.1
	c-0.4-0.4-0.9-0.8-1.4-1.1c-0.4-0.3-0.9-0.6-1.4-0.9c-0.4-0.2-0.8-0.4-1.2-0.5c-0.4-0.1-0.9-0.3-1.5-0.4c-0.6-0.1-1.1-0.2-1.7-0.2
	c-0.5,0-0.9,0-1.4,0c-0.4,0-0.9,0.1-1.3,0.2c-0.6,0.2-1.1,0.3-1.7,0.6c-0.6,0.2-1.1,0.5-1.6,0.8c-0.4,0.3-0.8,0.5-1.2,0.8
	c-0.3,0.3-0.6,0.5-1,0.8c-0.4,0.3-0.7,0.7-1,1.1c-0.3,0.4-0.6,0.9-0.9,1.3c-0.3,0.5-0.5,1-0.7,1.6c-0.1,0.4-0.2,0.9-0.3,1.4
	c-0.1,0.6-0.2,1.2-0.2,1.8c0,0.6,0,1.1,0,1.7c0,0.5,0.1,0.9,0.2,1.3c0.1,0.4,0.2,0.8,0.3,1.2c0.2,0.5,0.4,0.9,0.6,1.3
	c0.2,0.4,0.4,0.8,0.7,1.2c0.2,0.3,0.4,0.6,0.6,0.8c0.3,0.3,0.6,0.7,0.9,0.9c0.3,0.3,0.6,0.5,1,0.8c0.3,0.2,0.5,0.3,0.8,0.5
	c0.4,0.2,0.8,0.4,1.2,0.5c0.4,0.1,0.8,0.3,1.3,0.3c0.4,0.1,0.7,0.1,1.1,0.1c0.5,0,0.9,0,1.4-0.1c0.5-0.1,1-0.1,1.4-0.2
	c0.3-0.1,0.7-0.2,1-0.3c0.4-0.1,0.8-0.3,1.1-0.5c0.4-0.2,0.6-0.3,0.8-0.4L190,50c0.3-0.2,0.6-0.5,0.7-0.8c0.1-0.3,0.1-0.6-0.1-0.8
	c-0.2-0.2-0.5-0.4-0.8-0.4c-0.4,0-0.8,0.1-1.1,0.3l-0.2,0.1c-0.1,0.1-0.3,0.2-0.6,0.3c-0.7,0.4-1.4,0.6-2.1,0.7
	c-0.3,0-0.6,0.1-0.8,0.1c-0.2,0-0.5,0-0.7-0.1c-0.3,0-0.5-0.1-0.8-0.2c-0.3-0.1-0.5-0.2-0.8-0.3c-0.2-0.1-0.5-0.3-0.7-0.4
	c-0.3-0.2-0.5-0.4-0.8-0.6c-0.3-0.2-0.5-0.5-0.7-0.8c-0.2-0.2-0.4-0.5-0.6-0.7c-0.2-0.3-0.4-0.7-0.6-1.1c-0.2-0.4-0.4-0.8-0.5-1.2
	c-0.1-0.3-0.2-0.7-0.3-1c-0.1-0.4-0.1-0.8-0.2-1.1c0-0.5,0-1,0-1.5c0-0.5,0.1-1,0.2-1.5c0.1-0.4,0.2-0.8,0.3-1.2
	c0.1-0.4,0.3-0.8,0.5-1.1c0.2-0.4,0.4-0.7,0.7-1.1c0.2-0.2,0.3-0.4,0.5-0.5c0.3-0.2,0.6-0.5,0.9-0.7c0.3-0.2,0.5-0.4,0.8-0.6
	c0.3-0.2,0.6-0.4,1-0.5c0.3-0.1,0.6-0.3,1-0.3c0.3-0.1,0.5-0.1,0.8-0.1c0.3,0,0.6,0,0.9,0c0.4,0,0.8,0.1,1.2,0.2
	c0.5,0.1,0.9,0.2,1.2,0.4c0.3,0.1,0.6,0.2,0.9,0.4c0.4,0.2,0.8,0.5,1.2,0.8c0.4,0.3,0.8,0.6,1.2,0.9c0.3,0.3,0.5,0.6,0.7,0.9
	c0.3,0.4,0.5,0.8,0.8,1.3c0.2,0.4,0.4,0.9,0.6,1.3c0.1,0.3,0.1,0.6,0.1,0.9c0,0.2,0,0.4-0.1,0.7c-0.1,0.2-0.2,0.3-0.3,0.4
	c-0.2,0.2-0.4,0.3-0.6,0.5c-0.1,0-0.2,0.1-0.3,0.1c-0.1,0-0.1,0-0.2,0c-0.1,0-0.1-0.1-0.2-0.1c-0.2-0.1-0.3-0.2-0.5-0.4
	c-0.1-0.1-0.2-0.2-0.3-0.4c-0.1-0.1-0.2-0.3-0.4-0.4c-0.3-0.3-0.5-0.7-0.7-0.9c-0.1-0.3-0.2-0.6-0.3-0.9c-0.1-0.3-0.3-0.6-0.5-0.9
	c-0.1-0.2-0.2-0.4-0.3-0.6c0.1-0.1,0.2-0.2,0.3-0.3c0.2-0.2,0.3-0.6,0.2-0.9c-0.1-0.3-0.3-0.5-0.6-0.6l-0.3-0.1
	c-0.2-0.1-0.5-0.1-0.7-0.2c-0.3,0-0.7-0.1-1-0.1c-0.5,0-1,0.1-1.4,0.3c-0.6,0.2-1.1,0.4-1.6,0.7c-0.5,0.3-1,0.7-1.5,1.2
	c-0.5,0.6-1,1.3-1.4,2c-0.4,0.7-0.7,1.5-0.9,2.4c-0.1,0.6-0.1,1.3,0,1.9c0.1,0.5,0.3,1.1,0.5,1.6c0.2,0.4,0.5,0.8,0.7,1.2
	c0.3,0.4,0.6,0.7,1,0.9c0.4,0.3,0.7,0.5,1.2,0.7c0.4,0.2,0.9,0.3,1.3,0.3c0.6,0,1.1,0,1.7-0.1c0.6-0.1,1.1-0.3,1.6-0.6
	c0.5-0.3,0.9-0.6,1.3-0.9c0.4-0.4,0.7-0.8,1-1.3c0.2-0.4,0.3-0.8,0.4-1.2c0,0,0.1,0,0.1,0c0.5,0.1,0.9,0.1,1.4,0
	c0.6-0.1,1.2-0.3,1.7-0.6c0.5-0.3,1-0.7,1.5-1.2c0.5-0.4,0.8-1,1-1.6c0.1-0.4,0.2-0.8,0.1-1.2C196.4,38.8,196.3,38.3,196.2,37.9z
	 M187.7,43.7c0,0.3-0.1,0.6-0.2,0.8c-0.1,0.1-0.1,0.3-0.3,0.4c-0.1,0.1-0.3,0.3-0.5,0.3c-0.2,0.1-0.3,0.1-0.5,0.2
	c-0.2,0-0.4,0.1-0.6,0.1c-0.2,0-0.4-0.1-0.6-0.2c-0.3-0.1-0.5-0.2-0.7-0.4c-0.2-0.2-0.5-0.4-0.7-0.6c-0.2-0.3-0.4-0.6-0.5-0.9
	c-0.2-0.4-0.3-0.8-0.3-1.2c-0.1-0.4-0.1-0.9,0-1.3c0.1-0.6,0.3-1.1,0.6-1.6c0.2-0.5,0.5-0.9,0.9-1.3c0.2-0.2,0.4-0.4,0.6-0.5
	c0.2-0.1,0.4-0.2,0.7-0.3l0.1-0.1c0,0.2,0,0.4,0.1,0.6c0.1,0.3,0.2,0.5,0.3,0.8c0.1,0.3,0.3,0.6,0.5,0.9s0.4,0.7,0.6,1.1l0,0
	c0,0.2,0.1,0.3,0.2,0.5c0.1,0.4,0.2,0.9,0.3,1.3c0,0.1,0,0.2,0,0.3C187.7,42.9,187.7,43.3,187.7,43.7z"/>
<path class="st0" d="M54.9,41.5L54.9,41.5c-0.1-0.4-0.2-0.7-0.4-1c-0.2-0.3-0.3-0.6-0.5-0.9c-0.2-0.2-0.4-0.5-0.6-0.7
	c-0.3-0.3-0.5-0.5-0.8-0.7c-0.3-0.2-0.6-0.4-0.8-0.6c-0.2-0.1-0.5-0.2-0.8-0.3c-0.3-0.1-0.6-0.2-0.9-0.3c-0.3-0.1-0.7-0.1-1.1-0.2
	c-0.3,0-0.6,0-0.9,0c-0.3,0-0.5,0.1-0.8,0.1c-0.4,0.1-0.7,0.2-1,0.3c-0.3,0.1-0.7,0.3-1,0.5c-0.3,0.2-0.5,0.3-0.7,0.5
	c-0.2,0.2-0.4,0.3-0.6,0.5c-0.2,0.2-0.4,0.4-0.6,0.7c-0.2,0.3-0.4,0.6-0.5,0.9c-0.2,0.3-0.3,0.7-0.4,1c-0.1,0.3-0.1,0.6-0.2,0.9
	C42.1,42.6,42,43,42,43.4c0,0.4,0,0.7,0,1.1c0,0.3,0.1,0.6,0.1,0.8c0.1,0.3,0.1,0.5,0.2,0.8c0.1,0.3,0.2,0.6,0.4,0.8
	c0.1,0.3,0.3,0.5,0.4,0.8c0.1,0.2,0.3,0.4,0.4,0.5c0.2,0.2,0.4,0.4,0.6,0.6c0.2,0.2,0.4,0.3,0.6,0.5c0.2,0.1,0.3,0.2,0.5,0.3
	c0.2,0.1,0.5,0.2,0.7,0.3c0.3,0.1,0.5,0.2,0.8,0.2c0.2,0,0.4,0.1,0.7,0.1c0.3,0,0.6,0,0.9-0.1c0.3,0,0.6-0.1,0.8-0.1
	c0.2-0.1,0.4-0.1,0.6-0.2c0.2-0.1,0.5-0.2,0.7-0.3l0.5-0.3l0.1-0.1c0.2-0.1,0.4-0.3,0.4-0.5c0.1-0.2,0.1-0.4,0-0.5
	c-0.1-0.2-0.3-0.2-0.5-0.2c-0.2,0-0.5,0-0.7,0.2l-0.1,0.1c-0.1,0-0.2,0.1-0.4,0.2c-0.1,0.1-0.3,0.1-0.4,0.2
	c-0.1,0.1-0.3,0.1-0.4,0.1c-0.2,0-0.3,0.1-0.5,0.1c-0.2,0-0.3,0-0.5,0c-0.1,0-0.3,0-0.5,0c-0.2,0-0.3-0.1-0.5-0.1
	c-0.2-0.1-0.3-0.1-0.5-0.2c-0.1-0.1-0.3-0.2-0.4-0.2c-0.2-0.1-0.3-0.2-0.5-0.4c-0.2-0.2-0.3-0.3-0.5-0.5c-0.1-0.1-0.2-0.3-0.3-0.5
	c-0.1-0.2-0.2-0.4-0.4-0.7c-0.1-0.3-0.2-0.5-0.3-0.7c-0.1-0.2-0.1-0.4-0.2-0.7c0-0.2-0.1-0.5-0.1-0.7c0-0.3,0-0.6,0-1
	c0-0.3,0-0.6,0.1-0.9c0.1-0.3,0.1-0.5,0.2-0.7c0.1-0.3,0.2-0.5,0.3-0.7c0.2-0.3,0.3-0.5,0.4-0.7c0.1-0.1,0.2-0.2,0.3-0.3
	c0.2-0.1,0.3-0.3,0.5-0.5c0.2-0.1,0.3-0.3,0.5-0.4c0.2-0.1,0.4-0.2,0.6-0.3c0.2-0.1,0.4-0.2,0.6-0.2c0.2,0,0.3-0.1,0.5-0.1
	c0.2,0,0.4,0,0.6,0c0.2,0,0.5,0.1,0.7,0.1c0.3,0.1,0.5,0.1,0.8,0.2c0.2,0.1,0.4,0.2,0.5,0.2c0.2,0.1,0.5,0.3,0.7,0.5
	c0.3,0.2,0.5,0.4,0.7,0.6c0.2,0.2,0.3,0.3,0.4,0.5c0.2,0.3,0.3,0.5,0.5,0.8c0.1,0.3,0.3,0.6,0.3,0.8c0.1,0.2,0.1,0.4,0.1,0.6
	c0,0.1,0,0.3,0,0.4c-0.1,0.1-0.1,0.2-0.2,0.3c-0.1,0.1-0.2,0.2-0.4,0.3c-0.1,0-0.1,0-0.2,0.1c0,0-0.1,0-0.1,0c0,0-0.1,0-0.1-0.1
	c-0.1-0.1-0.2-0.1-0.3-0.2c-0.1-0.1-0.1-0.2-0.2-0.2c-0.1-0.1-0.1-0.2-0.2-0.3c-0.2-0.2-0.3-0.4-0.4-0.6c0-0.2-0.1-0.4-0.2-0.6
	c-0.1-0.2-0.2-0.4-0.3-0.6c-0.1-0.1-0.1-0.3-0.2-0.4c0.1-0.1,0.1-0.1,0.2-0.2c0.1-0.2,0.2-0.4,0.1-0.6c-0.1-0.2-0.2-0.3-0.4-0.4
	l-0.2,0c-0.1,0-0.3-0.1-0.5-0.1c-0.2,0-0.4,0-0.6,0c-0.3,0-0.6,0.1-0.9,0.2c-0.4,0.1-0.7,0.2-1,0.4c-0.3,0.2-0.6,0.4-0.9,0.7
	c-0.3,0.4-0.6,0.8-0.9,1.3c-0.3,0.5-0.4,1-0.5,1.5c-0.1,0.4-0.1,0.8,0,1.2c0.1,0.3,0.2,0.7,0.3,1c0.1,0.3,0.3,0.5,0.5,0.7
	c0.2,0.2,0.4,0.4,0.6,0.6c0.2,0.2,0.5,0.3,0.7,0.4c0.3,0.1,0.5,0.2,0.8,0.2c0.7,0,1.4-0.1,2-0.4c0.3-0.2,0.5-0.3,0.8-0.6
	c0.3-0.2,0.5-0.5,0.6-0.8c0.1-0.2,0.2-0.5,0.2-0.8c0,0,0.1,0,0.1,0c0.3,0.1,0.6,0.1,0.9,0c0.4-0.1,0.7-0.2,1.1-0.4
	c0.3-0.2,0.6-0.4,0.9-0.7c0.3-0.3,0.5-0.6,0.6-1c0.1-0.3,0.1-0.5,0.1-0.8C55,42,54.9,41.8,54.9,41.5z M49.6,45.2
	c0,0.2-0.1,0.4-0.1,0.5c0,0.1-0.1,0.2-0.2,0.2c-0.1,0.1-0.2,0.2-0.3,0.2c-0.1,0.1-0.2,0.1-0.3,0.1c-0.1,0-0.2,0-0.3,0
	c-0.1,0-0.3-0.1-0.4-0.1c-0.2,0-0.3-0.1-0.4-0.2c-0.2-0.1-0.3-0.2-0.4-0.4c-0.1-0.2-0.2-0.4-0.3-0.6c-0.1-0.2-0.2-0.5-0.2-0.8
	c0-0.3-0.1-0.6,0-0.8c0.1-0.4,0.2-0.7,0.4-1c0.1-0.3,0.3-0.6,0.5-0.8c0.1-0.1,0.2-0.2,0.4-0.3c0.1-0.1,0.3-0.1,0.4-0.2
	c0,0,0.1,0,0.1,0c0,0.1,0,0.3,0.1,0.4c0.1,0.2,0.1,0.3,0.2,0.5c0.1,0.2,0.2,0.3,0.3,0.6s0.2,0.4,0.4,0.7l0,0c0,0.1,0.1,0.2,0.1,0.3
	c0.1,0.3,0.1,0.5,0.2,0.8c0,0.1,0,0.1,0,0.2C49.6,44.7,49.6,44.9,49.6,45.2z"/>
<path class="st0" d="M281.7,5.4c-0.1-0.3-0.1-0.6-0.2-0.9c-0.1-0.3-0.2-0.7-0.4-1c-0.1-0.3-0.3-0.5-0.4-0.8
	c-0.2-0.2-0.3-0.4-0.5-0.6c-0.3-0.2-0.5-0.5-0.8-0.7c-0.3-0.2-0.6-0.4-0.9-0.6c-0.3-0.1-0.6-0.2-0.8-0.4c-0.2-0.1-0.5-0.2-0.8-0.2
	c-0.3-0.1-0.6-0.1-0.9-0.2c-0.3,0-0.7,0-1,0c-0.4,0-0.7,0.1-1.1,0.2c-0.3,0.1-0.6,0.2-0.8,0.3c-0.4,0.1-0.7,0.3-1,0.5
	c-0.4,0.2-0.7,0.4-0.9,0.6c-0.2,0.2-0.5,0.3-0.7,0.5c-0.2,0.2-0.4,0.4-0.6,0.6c-0.2,0.2-0.4,0.5-0.5,0.8c-0.2,0.2-0.3,0.5-0.4,0.8
	c-0.1,0.2-0.2,0.4-0.3,0.6c-0.1,0.3-0.2,0.5-0.2,0.8c-0.1,0.3-0.1,0.6-0.1,0.8s0,0.4,0,0.6c0,0.3,0.1,0.5,0.1,0.8
	c0,0.3,0.1,0.5,0.2,0.8c0.1,0.2,0.2,0.4,0.3,0.6c0.2,0.3,0.3,0.5,0.5,0.7c0.2,0.2,0.4,0.4,0.6,0.7c0.2,0.1,0.3,0.3,0.5,0.4
	c0.2,0.2,0.4,0.3,0.6,0.4c0.2,0.1,0.4,0.2,0.5,0.3l0.2,0.1c0.2,0.1,0.4,0.2,0.7,0.1c0.2,0,0.3-0.1,0.4-0.3c0.1-0.2,0-0.4-0.1-0.6
	c-0.1-0.2-0.3-0.4-0.5-0.5l-0.2-0.1c-0.1,0-0.2-0.1-0.4-0.2c-0.1-0.1-0.3-0.2-0.4-0.2c-0.1-0.1-0.2-0.2-0.3-0.3
	c-0.1-0.1-0.2-0.3-0.3-0.4c-0.1-0.1-0.2-0.3-0.3-0.4c-0.1-0.1-0.1-0.3-0.2-0.4c-0.1-0.2-0.1-0.3-0.1-0.5c0-0.2-0.1-0.3-0.1-0.5
	c0-0.2,0-0.3,0-0.5c0-0.2,0-0.4,0.1-0.6c0-0.2,0.1-0.4,0.2-0.7c0.1-0.2,0.2-0.3,0.2-0.5c0.1-0.2,0.2-0.4,0.4-0.7s0.3-0.5,0.5-0.7
	c0.1-0.2,0.3-0.3,0.5-0.5c0.2-0.2,0.4-0.3,0.6-0.4c0.3-0.2,0.5-0.3,0.8-0.5c0.3-0.2,0.6-0.3,0.9-0.4c0.3-0.1,0.5-0.2,0.7-0.2
	c0.3-0.1,0.5-0.1,0.8-0.1c0.3,0,0.5,0,0.8,0c0.2,0,0.3,0.1,0.5,0.1c0.2,0.1,0.4,0.1,0.7,0.2c0.2,0.1,0.4,0.2,0.6,0.2
	c0.2,0.1,0.4,0.2,0.6,0.4c0.2,0.1,0.3,0.3,0.5,0.4c0.1,0.1,0.2,0.3,0.3,0.4c0.1,0.1,0.2,0.3,0.3,0.5c0.1,0.2,0.2,0.4,0.3,0.7
	c0.1,0.3,0.1,0.5,0.2,0.8c0,0.2,0,0.4,0.1,0.6c0,0.3,0,0.6-0.1,0.9c0,0.3-0.1,0.6-0.1,0.9c-0.1,0.2-0.1,0.4-0.2,0.7
	c-0.1,0.3-0.3,0.6-0.5,0.8c-0.2,0.3-0.3,0.5-0.6,0.7c-0.1,0.1-0.3,0.3-0.5,0.4c-0.1,0.1-0.2,0.1-0.4,0.2c-0.1,0-0.2,0-0.3,0
	c-0.2,0-0.3-0.1-0.5-0.2c-0.1,0-0.1-0.1-0.1-0.1c0,0-0.1-0.1-0.1-0.1V9.8c0-0.1,0-0.2,0.1-0.4c0-0.1,0.1-0.2,0.1-0.3
	c0-0.1,0.1-0.2,0.1-0.3c0.1-0.2,0.2-0.5,0.3-0.7c0.1-0.1,0.3-0.3,0.4-0.4c0.1-0.2,0.3-0.4,0.4-0.6c0.1-0.1,0.2-0.3,0.2-0.4
	c0.1,0,0.2,0.1,0.3,0c0.4,0,0.6-0.3,0.6-0.7l-0.1-0.2c0-0.2-0.1-0.3-0.1-0.4c-0.1-0.2-0.2-0.4-0.3-0.6c-0.2-0.3-0.4-0.5-0.6-0.7
	c-0.3-0.2-0.6-0.5-0.9-0.6c-0.3-0.2-0.7-0.3-1.1-0.4c-0.5-0.1-1-0.1-1.5-0.1c-0.5,0-1.1,0.1-1.6,0.3c-0.4,0.1-0.7,0.4-1,0.6
	c-0.3,0.2-0.5,0.5-0.7,0.7c-0.2,0.2-0.3,0.5-0.4,0.8c-0.1,0.3-0.2,0.5-0.2,0.8c0,0.3,0,0.6,0,0.8c0,0.3,0.1,0.6,0.2,0.8
	c0.2,0.3,0.4,0.6,0.6,0.8c0.2,0.3,0.5,0.5,0.8,0.7c0.3,0.2,0.6,0.3,0.9,0.4c0.3,0.1,0.7,0.1,1,0.1c0.3,0,0.5-0.1,0.8-0.2
	c0,0,0,0.1,0,0.1c0.1,0.3,0.2,0.5,0.4,0.8c0.2,0.3,0.5,0.5,0.9,0.7c0.3,0.2,0.7,0.3,1.1,0.4c0.4,0.1,0.8,0.1,1.2,0
	c0.3-0.1,0.5-0.2,0.7-0.3c0.2-0.2,0.4-0.3,0.6-0.5h0c0.3-0.3,0.5-0.6,0.7-0.9c0.2-0.3,0.4-0.6,0.5-0.9c0.1-0.3,0.2-0.6,0.3-0.8
	c0.1-0.4,0.2-0.7,0.2-1.1c0-0.4,0.1-0.8,0.1-1C281.7,6,281.7,5.7,281.7,5.4z M276.2,6.4c-0.1,0.2-0.2,0.4-0.4,0.7v0
	c-0.1,0.1-0.1,0.2-0.2,0.2c-0.2,0.2-0.4,0.4-0.6,0.6c0,0-0.1,0.1-0.1,0.1c-0.2,0.2-0.4,0.3-0.7,0.4c-0.2,0.1-0.3,0.1-0.5,0.2
	c-0.1,0-0.2,0-0.3,0c-0.1,0-0.2-0.1-0.3-0.1c-0.1-0.1-0.2-0.1-0.2-0.2c-0.2-0.2-0.3-0.4-0.3-0.7c0-0.2,0-0.3,0-0.5
	c0-0.2,0.1-0.4,0.1-0.6c0.1-0.2,0.2-0.4,0.3-0.6c0.2-0.2,0.3-0.4,0.5-0.6c0.5-0.4,1.2-0.7,1.8-0.6c0.3,0,0.7,0,1,0
	c0.2,0,0.3,0.1,0.5,0.2c0.1,0.1,0.3,0.2,0.4,0.3c0,0,0.1,0,0.1,0.1c-0.1,0.1-0.2,0.1-0.3,0.3c-0.1,0.1-0.2,0.3-0.3,0.4
	C276.4,6,276.3,6.2,276.2,6.4z"/>
</svg>
