<?xml version="1.0" encoding="UTF-8"?>
<svg width="21px" height="18px" viewBox="0 0 21 18" version="1.1" xmlns="http://www.w3.org/2000/svg" xmlns:xlink="http://www.w3.org/1999/xlink">
    <!-- Generator: Sketch 43.1 (39012) - http://www.bohemiancoding.com/sketch -->
    <title>Page 1</title>
    <desc>Created with Sketch.</desc>
    <defs>
        <polygon id="path-1" points="10.2506 17.5 20.501 17.5 20.501 0.3955 10.2506 0.3955 0.0002 0.3955 0.0002 17.5"></polygon>
    </defs>
    <g id="Symbols" stroke="none" stroke-width="1" fill="none" fill-rule="evenodd" opacity="0.7">
        <g id="Footer" transform="translate(-667.000000, -310.000000)">
            <g id="Group-2" transform="translate(175.000000, 309.000000)">
                <g id="Page-1" transform="translate(492.000000, 1.000000)">
                    <g id="Group-3" transform="translate(0.000000, 0.104500)">
                        <mask id="mask-2" fill="white">
                            <use xlink:href="#path-1"></use>
                        </mask>
                        <g id="Clip-2"></g>
                        <path d="M1.6382,1.8955 C1.6012,1.903 1.5117,1.9825 1.4982,2.03 L1.5002,15.954 C1.5002,15.9785 1.5197,16 1.5422,16 L18.9592,16 C18.9657,16 19.0012,15.9985 19.0012,15.9715 L19.0012,2.0215 C18.9902,2.0195 18.9762,2.018 18.9597,2.018 L1.6382,1.8955 Z M18.9592,17.5 L1.5422,17.5 C0.6917,17.5 0.0002,16.8065 0.0002,15.954 L0.0002,2.011 C0.0002,1.1655 0.7832,0.3955 1.6437,0.3955 L18.9647,0.518 C19.8382,0.518 20.5012,1.1485 20.5012,1.985 L20.5012,15.9715 C20.5012,16.8145 19.8092,17.5 18.9592,17.5 L18.9592,17.5 Z" id="Fill-1" fill="#FFFFFF" mask="url(#mask-2)"></path>
                    </g>
                    <path d="M10.2534,11.7549 L10.2359,11.7549 C9.8274,11.7504 9.4459,11.5909 9.1604,11.3059 L3.0024,5.1479 L4.0629,4.0874 L10.2214,10.2449 C10.2344,10.2584 10.2649,10.2594 10.2794,10.2454 L15.8779,4.6469 L16.9384,5.7074 L11.3404,11.3064 C11.0509,11.5959 10.6649,11.7549 10.2534,11.7549" id="Fill-4" fill="#FFFFFF"></path>
                    <path d="M4.09275,13.76465 C3.90075,13.76465 3.70875,13.69165 3.56225,13.54515 C3.26975,13.25265 3.26975,12.77715 3.56225,12.48415 L5.24175,10.80465 C5.53475,10.51165 6.00925,10.51165 6.30225,10.80465 C6.59525,11.09715 6.59525,11.57215 6.30225,11.86515 L4.62325,13.54515 C4.47675,13.69165 4.28475,13.76465 4.09275,13.76465" id="Fill-6" fill="#FFFFFF"></path>
                    <path d="M16.4082,13.76465 C16.2162,13.76465 16.0242,13.69165 15.8777,13.54515 L14.1987,11.86515 C13.9057,11.57215 13.9057,11.09715 14.1987,10.80465 C14.4917,10.51165 14.9662,10.51165 15.2592,10.80465 L16.9387,12.48415 C17.2312,12.77715 17.2312,13.25265 16.9387,13.54515 C16.7922,13.69165 16.6002,13.76465 16.4082,13.76465" id="Fill-8" fill="#FFFFFF"></path>
                </g>
            </g>
        </g>
    </g>
</svg>