<?xml version="1.0" encoding="UTF-8"?>
<svg width="24px" height="24px" viewBox="0 0 24 24" version="1.1" xmlns="http://www.w3.org/2000/svg" xmlns:xlink="http://www.w3.org/1999/xlink">
    <!-- Generator: Sketch 43.1 (39012) - http://www.bohemiancoding.com/sketch -->
    <title>Facebook</title>
    <desc>Created with Sketch.</desc>
    <defs></defs>
    <g id="Symbols" stroke="none" stroke-width="1" fill="none" fill-rule="evenodd">
        <g id="Footer-Mobile" transform="translate(-48.000000, -687.000000)" fill="#FFFFFF">
            <path d="M60.8191776,711 L49.3246158,711 C48.5928363,711 48,710.406796 48,709.675301 L48,688.324605 C48,687.592925 48.5929295,687 49.3246158,687 L70.6754774,687 C71.4069774,687 72,687.592925 72,688.324605 L72,709.675301 C72,710.406889 71.4068843,711 70.6754774,711 L64.5596526,711 L64.5596526,701.705877 L67.6792606,701.705877 L68.1463776,698.083793 L64.5596526,698.083793 L64.5596526,695.771321 C64.5596526,694.722644 64.8508558,694.008005 66.3546448,694.008005 L68.2726557,694.007167 L68.2726557,690.767545 C67.940943,690.723404 66.8023918,690.624785 65.477776,690.624785 C62.7124171,690.624785 60.8191776,692.312763 60.8191776,695.412604 L60.8191776,698.083793 L57.6915609,698.083793 L57.6915609,701.705877 L60.8191776,701.705877 L60.8191776,711 L60.8191776,711 Z" id="Facebook"></path>
        </g>
    </g>
</svg>