<?xml version="1.0" encoding="UTF-8"?>
<svg width="25px" height="24px" viewBox="0 0 25 24" version="1.1" xmlns="http://www.w3.org/2000/svg" xmlns:xlink="http://www.w3.org/1999/xlink">
    <!-- Generator: Sketch 43.1 (39012) - http://www.bohemiancoding.com/sketch -->
    <title>Instagram</title>
    <desc>Created with Sketch.</desc>
    <defs></defs>
    <g id="Symbols" stroke="none" stroke-width="1" fill="none" fill-rule="evenodd">
        <g id="Footer-Mobile" transform="translate(-213.000000, -687.000000)" fill="#FFFFFF">
            <path d="M225.333357,687 C228.592338,687 229.00099,687.013814 230.280918,687.072213 C231.558178,687.13047 232.430501,687.333343 233.193789,687.630008 C233.982895,687.936629 234.652107,688.346949 235.319269,689.014064 C235.986385,689.681227 236.396705,690.350438 236.703373,691.139544 C236.99999,691.902832 237.202864,692.775155 237.26112,694.052415 C237.319519,695.332343 237.333333,695.740996 237.333333,699.000024 C237.333333,702.259004 237.319519,702.667657 237.26112,703.947585 C237.202864,705.224845 236.99999,706.097168 236.703373,706.860456 C236.396705,707.649562 235.986385,708.318773 235.319269,708.985936 C234.652107,709.653051 233.982895,710.063371 233.193789,710.370039 C232.430501,710.666657 231.558178,710.86953 230.280918,710.927787 C229.00099,710.986186 228.592338,711 225.333357,711 C222.074329,711 221.665676,710.986186 220.385749,710.927787 C219.108489,710.86953 218.236166,710.666657 217.472877,710.370039 C216.683771,710.063371 216.01456,709.653051 215.347397,708.985936 C214.680282,708.318773 214.269962,707.649562 213.963342,706.860456 C213.666677,706.097168 213.463803,705.224845 213.405547,703.947585 C213.347147,702.667657 213.333333,702.259004 213.333333,699.000024 C213.333333,695.740996 213.347147,695.332343 213.405547,694.052415 C213.463803,692.775155 213.666677,691.902832 213.963342,691.139544 C214.269962,690.350438 214.680282,689.681227 215.347397,689.014064 C216.01456,688.346949 216.683771,687.936629 217.472877,687.630008 C218.236166,687.333343 219.108489,687.13047 220.385749,687.072213 C221.665676,687.013814 222.074329,687 225.333357,687 Z M225.333357,689.162158 C222.129203,689.162158 221.749655,689.1744 220.484304,689.232133 C219.314315,689.285483 218.678925,689.480973 218.256077,689.645311 C217.695948,689.862998 217.296203,690.123033 216.876308,690.542975 C216.456366,690.962869 216.196332,691.362614 215.978644,691.922743 C215.814306,692.345591 215.618816,692.980982 215.565466,694.15097 C215.507734,695.416322 215.495492,695.79587 215.495492,699.000024 C215.495492,702.20413 215.507734,702.583678 215.565466,703.84903 C215.618816,705.019018 215.814306,705.654409 215.978644,706.077257 C216.196332,706.637386 216.456414,707.037131 216.876308,707.457025 C217.296203,707.876967 217.695948,708.137002 218.256077,708.354689 C218.678925,708.519027 219.314315,708.714517 220.484304,708.767867 C221.749512,708.8256 222.128965,708.837842 225.333357,708.837842 C228.537701,708.837842 228.917202,708.8256 230.182363,708.767867 C231.352351,708.714517 231.987742,708.519027 232.41059,708.354689 C232.970719,708.137002 233.370464,707.876967 233.790358,707.457025 C234.2103,707.037131 234.470335,706.637386 234.688023,706.077257 C234.85236,705.654409 235.04785,705.019018 235.101201,703.84903 C235.158933,702.583678 235.171175,702.20413 235.171175,699.000024 C235.171175,695.79587 235.158933,695.416322 235.101201,694.15097 C235.04785,692.980982 234.85236,692.345591 234.688023,691.922743 C234.470335,691.362614 234.2103,690.962869 233.790358,690.542975 C233.370464,690.123033 232.970719,689.862998 232.41059,689.645311 C231.987742,689.480973 231.352351,689.285483 230.182363,689.232133 C228.917012,689.1744 228.537463,689.162158 225.333357,689.162158 Z M225.333357,692.837842 C228.736621,692.837842 231.495492,695.596712 231.495492,699.000024 C231.495492,702.403288 228.736621,705.162158 225.333357,705.162158 C221.930045,705.162158 219.171175,702.403288 219.171175,699.000024 C219.171175,695.596712 221.930045,692.837842 225.333357,692.837842 Z M225.333357,703 C227.542483,703 229.333333,701.209149 229.333333,699.000024 C229.333333,696.790851 227.542483,695 225.333357,695 C223.124184,695 221.333333,696.790851 221.333333,699.000024 C221.333333,701.209149 223.124184,703 225.333357,703 Z M233.178975,692.594384 C233.178975,693.389682 232.534248,694.034362 231.738949,694.034362 C230.943699,694.034362 230.298971,693.389682 230.298971,692.594384 C230.298971,691.799085 230.943699,691.154358 231.738949,691.154358 C232.534248,691.154358 233.178975,691.799085 233.178975,692.594384 Z" id="Instagram"></path>
        </g>
    </g>
</svg>