<?xml version="1.0" encoding="UTF-8"?>
<svg width="25px" height="20px" viewBox="0 0 25 20" version="1.1" xmlns="http://www.w3.org/2000/svg" xmlns:xlink="http://www.w3.org/1999/xlink">
    <!-- Generator: Sketch 43.1 (39012) - http://www.bohemiancoding.com/sketch -->
    <title>Twitter</title>
    <desc>Created with Sketch.</desc>
    <defs></defs>
    <g id="Symbols" stroke="none" stroke-width="1" fill="none" fill-rule="evenodd">
        <g id="Footer-Mobile" transform="translate(-130.000000, -689.000000)" fill="#FFFFFF">
            <path d="M154.666667,691.367642 C153.784821,691.769231 152.835358,692.040809 151.839408,692.162152 C152.856489,691.5381 153.636908,690.548573 154.004578,689.369809 C153.052298,689.947635 152,690.368003 150.875858,690.593355 C149.979926,689.612495 148.699419,689 147.282268,689 C144.564888,689 142.360275,691.260744 142.360275,694.048754 C142.360275,694.444565 142.402536,694.828819 142.487058,695.198628 C138.394788,694.987721 134.767389,692.979776 132.337383,689.921632 C131.913365,690.669917 131.671069,691.5381 131.671069,692.462622 C131.671069,694.213434 132.540236,695.759119 133.861595,696.664861 C133.05582,696.640303 132.295122,696.410618 131.630217,696.035031 L131.630217,696.097147 C131.630217,698.54424 133.327699,700.58541 135.581616,701.047671 C135.168868,701.166125 134.73358,701.225352 134.284205,701.225352 C133.967248,701.225352 133.657334,701.195016 133.357281,701.135789 C133.984152,703.140845 135.801373,704.6013 137.956683,704.640303 C136.271879,705.995305 134.147561,706.802817 131.841521,706.802817 C131.444268,706.802817 131.051241,706.779704 130.666667,706.733478 C132.845924,708.163597 135.435112,709 138.214474,709 C147.272407,709 152.223983,701.307692 152.223983,694.635247 C152.223983,694.415674 152.219757,694.1961 152.211305,693.98086 C153.173446,693.268689 154.008804,692.380282 154.666667,691.367642" id="Twitter"></path>
        </g>
    </g>
</svg>